<svg xmlns="http://www.w3.org/2000/svg" version="1.1" xmlnsXlink="http://www.w3.org/1999/xlink" xmlnsSvgjs="http://svgjs.dev/svgjs" width="100%" height="100%" viewBox="0 0 1000 600"><rect width="1000" height="600" x="0" y="0" fill="transparent"/><g><rect width="333.3333333333333" height="333.3333333333333" rx="13.333333333333334" ry="13.333333333333334" y="286.9224072191927" fill="#55aaff" transform="matrix(0.472232331543375,0,0,0.472232331543375,0,85.80055740469197)" x="264.7001647949219"/><path d="M372.38503831398623 399.157714476303L372.38503831398623 399.157714476303Q366.3450433040735 395.4847445378426 360.63153451091284 395.4847445378426L360.63153451091284 395.4847445378426Q351.36748811057373 395.4847445378426 340.3485782951924 398.42312048861095L340.3485782951924 398.42312048861095L332.4108821504085 400.3208216234822Q328.8807499317771 401.19825333100323 326.98304879690585 401.19825333100323L326.98304879690585 401.19825333100323Q322.5754848707533 401.19825333100323 322.5754848707533 397.9742019405769L322.5754848707533 397.9742019405769Q322.5754848707533 396.05609541715864 325.7383200955387 393.19934102057834Q328.8807499317771 390.342586623998 334.1861509539977 387.6898861128877L334.1861509539977 387.6898861128877Q347.2455996240792 381.2213779434879 362.52923564578407 381.2213779434879L362.52923564578407 381.2213779434879Q384.4242175567176 381.2213779434879 390.5866448979124 388.7101555402378L390.5866448979124 388.7101555402378Q392.3619137015016 390.77109978348506 392.3619137015016 394.4440697219455L392.3619137015016 394.4440697219455Q392.05583287329654 408.7074363163001 379.13922192304403 470.2500881740594L379.13922192304403 470.2500881740594Q396.463396799449 463.2102291253436 400.3608260119265 458.65982747936204Q404.25825522440397 454.08902044483347 406.46203718748023 454.08902044483347Q408.6658191505565 454.08902044483347 408.6658191505565 458.65982747936204Q408.6658191505565 463.2102291253436 405.95190247380515 466.577118235599Q403.23798579705385 469.9644127344014 397.42245006115814 474.2291389407249Q391.62731971380947 478.4938651470484 376.20084597227566 485.1052110362771L376.20084597227566 485.1052110362771Q375.0173334365495 490.9819629378139 371.7932820461231 498.1646597063587L371.7932820461231 498.1646597063587Q360.77437223074185 528.5890940299394 335.79817664921086 528.5890940299394L335.79817664921086 528.5890940299394Q323.59575429810343 528.5890940299394 315.08670727400346 523.3040983962657Q306.55725486135645 517.9986973740449 306.55725486135645 506.97978755866376L306.55725486135645 506.97978755866376Q306.55725486135645 503.02114218054527 310.5975217936629 499.49100996191385Q314.63778872596936 495.9608777432824 322.3510255967363 492.08385391935195Q330.0642624675032 488.1864247068745 352.38775753792385 480.2487285620906L352.38775753792385 480.2487285620906Q353.285594633992 475.10657064824596 353.856945513308 470.61738516790547Q354.44870178117105 466.1486050761119 355.18329576886316 462.90414829713853L355.18329576886316 462.90414829713853Q358.26450943946054 441.90700348227307 367.38571811997065 413.4006756821107L367.38571811997065 413.4006756821107Q370.0180132425339 405.32014181749776 372.38503831398623 399.157714476303ZM325.9423739810087 514.7746459836187Q330.34993790716123 517.1212656665239 334.3289886738267 517.202887220712Q338.2876340519452 517.264103386353 340.3485782951924 515.4276184171227Q342.40952253843966 513.5911334478926 344.83776377553295 509.48965034994507Q347.2455996240792 505.36776186345054 349.6126246955315 495.08344603576137L349.6126246955315 495.08344603576137Q341.9606039904056 497.7361465468717 336.593986802544 499.49100996191385Q331.2477750032293 501.26627876550305 327.942102058615 502.73546674088726Q324.6364291140006 504.2046547162714 323.0856195844284 505.51059958327954Q321.5348100548562 506.83694983883476 321.5348100548562 508.75505636225296L321.5348100548562 508.75505636225296Q321.5348100548562 512.4280263007133 325.9423739810087 514.7746459836187ZM403.38082351688286 413.5435134019397L403.38082351688286 413.5435134019397Q403.38082351688286 410.91121827937644 405.2785246517541 410.91121827937644L405.2785246517541 410.91121827937644Q408.21690060252246 410.91121827937644 411.3185196616668 412.1559469807436Q414.3997333322642 413.4006756821107 417.92986555089556 414.13526966980277L417.92986555089556 414.13526966980277Q429.68336935396894 389.01623636844283 444.9465999871268 381.36421566331694L444.9465999871268 381.36421566331694Q450.2520010093474 378.7319205407536 455.53699664302104 378.7319205407536L455.53699664302104 378.7319205407536Q465.37239392267617 378.8747582605826 468.82090458711957 383.4251599065642Q472.28982064011 387.9755615525457 472.28982064011 395.17866370963753L472.28982064011 395.17866370963753Q472.12657753173403 408.8502740361291 460.5363168370366 416.70634862672506Q448.92565075379224 424.562423217321 432.1728267567033 425.4398549248421L432.1728267567033 425.4398549248421Q427.9081005503798 436.7648455684285 425.5614808674745 449.5386187988519L425.5614808674745 449.5386187988519Q431.29539504918216 447.33483683577566 440.25336062131623 447.33483683577566L440.25336062131623 447.33483683577566Q441.4368731570424 456.5988832361148 444.37524910781076 460.55752861423326Q447.3136250585791 464.53657938089873 450.9049734428515 464.53657938089873Q454.4963218271239 464.53657938089873 456.9245630642172 462.76131057730953Q459.35280430131047 461.0064471622673 461.1892892705407 458.80266519919104Q463.0257742397709 456.5988832361148 464.27050294113803 454.8236144325256Q465.5152316425052 453.0687510174834 466.6987441782313 453.0687510174834L466.6987441782313 453.0687510174834Q469.18820158096565 453.0687510174834 469.18820158096565 457.4763149436359L469.18820158096565 457.4763149436359Q469.18820158096565 466.29144279594095 464.78063765481306 472.0865731432896Q460.3730737286606 477.9021088791853 451.27227043669757 477.9021088791853L451.27227043669757 477.9021088791853Q437.02930923088985 477.9021088791853 430.9893142209771 470.4133312824354L430.9893142209771 470.4133312824354Q434.23377099995054 502.73546674088726 434.23377099995054 508.89789408208196L434.23377099995054 508.89789408208196Q434.23377099995054 519.9168038974633 427.3163442825167 524.6100432632738L427.3163442825167 524.6100432632738Q421.60283548935604 528.5890940299394 412.70608608286295 528.5890940299394Q403.8093366763699 528.5890940299394 400.3608260119265 524.5488270976327Q396.9123153474831 520.5085601653263 396.9123153474831 514.9174837034477L396.9123153474831 514.9174837034477Q396.9123153474831 479.5141345743985 407.0537934553433 443.6618668973153L407.0537934553433 443.6618668973153Q410.27784484576966 432.21444392244695 414.3997333322642 422.2158035344157L414.3997333322642 422.2158035344157Q403.38082351688286 417.35932106022915 403.38082351688286 413.5435134019397ZM418.0727032707246 517.264103386353Q419.8275666857668 517.264103386353 421.296754661151 514.5501867096016Q422.76594263653516 511.83627003285034 422.76594263653516 508.75505636225296L422.76594263653516 508.75505636225296Q422.76594263653516 498.61357825439273 419.97040440559584 477.5960280509803L419.97040440559584 477.5960280509803Q416.2974344671354 492.73682635285604 414.99148960012724 507.7143815463558L414.99148960012724 507.7143815463558Q414.6854087719222 510.9588383253292 414.6854087719222 511.69343231302133L414.6854087719222 511.69343231302133Q414.6854087719222 517.264103386353 418.0727032707246 517.264103386353L418.0727032707246 517.264103386353ZM454.3534841072949 393.28096257476636L454.3534841072949 393.28096257476636Q451.4151081565265 393.28096257476636 446.35457179686995 398.85163364809796Q441.27363004866635 404.44271010997664 435.9886344149927 415.890133084845L435.9886344149927 415.890133084845Q446.721868790716 411.19689371903445 450.08875790097136 408.7074363163001L450.08875790097136 408.7074363163001Q457.0061846184052 403.85095384211354 457.0061846184052 397.09677023305574L457.0061846184052 397.09677023305574Q457.0061846184052 393.28096257476636 454.3534841072949 393.28096257476636ZM504.6119560985618 481.86075425730377L504.6119560985618 481.86075425730377Q504.6119560985618 490.53304438977983 487.7162943816438 490.53304438977983L487.7162943816438 490.53304438977983Q484.0433244431834 490.53304438977983 483.3699466211323 486.77845289713133Q482.71697418762824 483.0442667930299 482.71697418762824 477.45319033115123Q482.71697418762824 471.8825192578196 483.51278434096133 465.4752272540608Q484.32899988284146 459.0883406388491 485.65535013839656 451.5995630420992L485.65535013839656 451.5995630420992Q488.14480754113083 437.1933587279155 492.77683074130044 420.52215628501455Q497.40885394146994 403.85095384211354 501.95925558745154 394.75015055015047L501.95925558745154 394.75015055015047Q492.6952091871124 395.3215014294666 483.5944058951494 398.05582349476487Q474.4936026031863 400.7697401715162 470.6573895563498 401.87163115305435Q466.8415818980604 402.9735221345925 464.35212449532605 402.9735221345925Q461.84226170404474 402.9735221345925 461.84226170404474 401.36149643937927L461.84226170404474 401.36149643937927Q461.84226170404474 399.44338991596106 464.78063765481306 395.6887984233126Q467.7190136055815 391.95461231921115 473.1672523476311 388.1388046609217L473.1672523476311 388.1388046609217Q486.98170039395177 378.7319205407536 503.87736211086974 378.5890828209246L503.87736211086974 378.5890828209246L552.1973221901715 379.01759598041167Q556.1763729568369 379.01759598041167 556.1763729568369 382.098809651009L556.1763729568369 382.098809651009Q556.1763729568369 382.9966467470771 554.9928604211108 385.2616448757944Q553.8297532739316 387.5470483930586 552.9319161778635 390.17934351562195L552.9319161778635 390.17934351562195Q551.0342150429923 395.4847445378426 544.9330038674386 395.4847445378426Q538.8317926918849 395.4847445378426 515.9165413536011 394.5869074417745L515.9165413536011 394.5869074417745Q515.3247850857381 401.0554156111742 513.5699216706959 411.11527216484643Q511.79465286710666 421.1955341070656 509.75411401240643 433.091875629968L509.75411401240643 433.091875629968Q504.75479381839085 463.4959045650016 504.6119560985618 481.86075425730377Z " fill="#ffffff" transform="matrix(0.472232331543375,0,0,0.472232331543375,0,85.80055740469197)"/><path d="M747.1946009970916 399.157714476303L747.1946009970916 399.157714476303Q741.1546059871789 395.4847445378426 735.4410971940183 395.4847445378426L735.4410971940183 395.4847445378426Q726.1770507936792 395.4847445378426 715.1581409782979 398.42312048861095L715.1581409782979 398.42312048861095L707.220444833514 400.3208216234822Q703.6903126148825 401.19825333100323 701.7926114800113 401.19825333100323L701.7926114800113 401.19825333100323Q697.3850475538588 401.19825333100323 697.3850475538588 397.9742019405769L697.3850475538588 397.9742019405769Q697.3850475538588 396.05609541715864 700.5478827786442 393.19934102057834Q703.6903126148825 390.342586623998 708.9957136371031 387.6898861128877L708.9957136371031 387.6898861128877Q722.0551623071847 381.2213779434879 737.3387983288894 381.2213779434879L737.3387983288894 381.2213779434879Q759.2337802398231 381.2213779434879 765.3962075810177 388.7101555402378L765.3962075810177 388.7101555402378Q767.171476384607 390.77109978348506 767.171476384607 394.4440697219455L767.171476384607 394.4440697219455Q766.865395556402 408.7074363163001 753.9487846061495 470.2500881740594L753.9487846061495 470.2500881740594Q771.2729594825545 463.2102291253436 775.170388695032 458.65982747936204Q779.0678179075094 454.08902044483347 781.2715998705856 454.08902044483347Q783.4753818336619 454.08902044483347 783.4753818336619 458.65982747936204Q783.4753818336619 463.2102291253436 780.7614651569106 466.577118235599Q778.0475484801593 469.9644127344014 772.2320127442636 474.2291389407249Q766.4368823969149 478.4938651470484 751.0104086553811 485.1052110362771L751.0104086553811 485.1052110362771Q749.826896119655 490.9819629378139 746.6028447292285 498.1646597063587L746.6028447292285 498.1646597063587Q735.5839349138473 528.5890940299394 710.6077393323163 528.5890940299394L710.6077393323163 528.5890940299394Q698.4053169812089 528.5890940299394 689.8962699571089 523.3040983962657Q681.3668175444618 517.9986973740449 681.3668175444618 506.97978755866376L681.3668175444618 506.97978755866376Q681.3668175444618 503.02114218054527 685.4070844767684 499.49100996191385Q689.4473514090748 495.9608777432824 697.1605882798417 492.08385391935195Q704.8738251506086 488.1864247068745 727.1973202210293 480.2487285620906L727.1973202210293 480.2487285620906Q728.0951573170973 475.10657064824596 728.6665081964135 470.61738516790547Q729.2582644642765 466.1486050761119 729.9928584519687 462.90414829713853L729.9928584519687 462.90414829713853Q733.0740721225659 441.90700348227307 742.195280803076 413.4006756821107L742.195280803076 413.4006756821107Q744.8275759256394 405.32014181749776 747.1946009970916 399.157714476303ZM700.7519366641142 514.7746459836187Q705.1595005902667 517.1212656665239 709.1385513569321 517.202887220712Q713.0971967350506 517.264103386353 715.1581409782979 515.4276184171227Q717.2190852215451 513.5911334478926 719.6473264586384 509.48965034994507Q722.0551623071847 505.36776186345054 724.422187378637 495.08344603576137L724.422187378637 495.08344603576137Q716.7701666735111 497.7361465468717 711.4035494856494 499.49100996191385Q706.0573376863348 501.26627876550305 702.7516647417203 502.73546674088726Q699.445991797106 504.2046547162714 697.8951822675338 505.51059958327954Q696.3443727379616 506.83694983883476 696.3443727379616 508.75505636225296L696.3443727379616 508.75505636225296Q696.3443727379616 512.4280263007133 700.7519366641142 514.7746459836187ZM834.754123252279 475.84116463593807L834.754123252279 475.84116463593807Q823.1434571690346 489.51277496242966 806.9007678856207 489.51277496242966Q790.6784839907538 489.51277496242966 782.5979501261409 481.20778182379973Q774.5174162615278 472.9027886851697 774.6602539813568 460.55752861423326L774.6602539813568 460.55752861423326Q774.5174162615278 443.0701106294522 785.6791637967382 430.4391751188577Q796.8409113319485 417.8082396082632 814.9200855845927 417.8082396082632L814.9200855845927 417.8082396082632Q823.1434571690346 417.8082396082632 828.1427773630502 419.86918385151046L828.1427773630502 419.86918385151046Q836.8150674955263 423.3993160701419 836.8150674955263 426.48052974073926L836.8150674955263 426.48052974073926Q836.8150674955263 428.8271494236445 824.6942666986067 428.90877097783255Q812.5734659016873 428.96998714347353 804.4113104828864 437.2749802821035Q796.2491550640855 445.5799734207335 796.2491550640855 458.210908931328L796.2491550640855 458.210908931328Q796.2491550640855 464.8222548205568 800.1465842765629 469.3114403008973Q804.0440134890404 473.7802203926908 811.1654940919442 473.7802203926908Q818.286974694848 473.7802203926908 823.0006194492056 470.8418444419225L823.0006194492056 470.8418444419225Q812.5734659016873 463.8019853932067 812.5734659016873 450.4160505063731L812.5734659016873 450.4160505063731Q812.4102227933114 443.3761914576572 817.634002261344 437.5606557217615Q822.8577817293765 431.76552537441285 830.9995317596305 431.6839038202248Q839.1616871784315 431.62268765458384 842.6918193970629 436.1730893005654Q846.2015462271473 440.7234909465469 846.2015462271473 447.84497154945075Q846.2015462271473 454.9868575409016 842.8346571168919 462.90414829713853L842.8346571168919 462.90414829713853L843.7120888244131 462.90414829713853Q850.1805969938127 462.76131057730953 854.8738363596234 458.353746651157L854.8738363596234 458.353746651157Q856.6491051632125 456.5988832361148 857.8938338645797 455.2725329805597Q859.1385625659468 453.94618272500446 860.464912821502 453.94618272500446L860.464912821502 453.94618272500446Q862.5258570647493 453.94618272500446 862.5258570647493 458.80266519919104L862.5258570647493 458.80266519919104Q862.5258570647493 467.7606307713251 857.2204560425287 472.24981625166566Q851.9354604088551 476.7185963434592 845.5485737936433 476.7185963434592Q839.1616871784315 476.7185963434592 834.754123252279 475.84116463593807ZM833.4277729967238 458.80266519919104L833.4277729967238 458.80266519919104Q835.917230399458 453.51766956551745 835.917230399458 448.5183493715018Q835.917230399458 443.51902917748623 832.6931790090317 443.51902917748623L832.6931790090317 443.51902917748623Q831.3668287534766 443.51902917748623 830.4893970459555 445.4371357009045Q829.6119653384344 447.33483683577566 829.6119653384344 449.1101056393649L829.6119653384344 449.1101056393649Q829.6119653384344 454.9868575409016 833.4277729967238 458.80266519919104ZM867.5047718702178 419.2774275836474L867.5047718702178 419.2774275836474Q856.6491051632125 414.5841882178368 856.6491051632125 410.17662429168433L856.6491051632125 410.17662429168433Q856.6491051632125 407.80959922023203 858.5468062980838 407.97284232860807L858.5468062980838 407.97284232860807Q861.1995068091941 407.97284232860807 864.5663959194495 409.2175710299752Q867.9536904182519 410.46229973134234 871.4838226368834 411.19689371903445L871.4838226368834 411.19689371903445Q883.5230018796148 388.4244801005798 898.8066379013195 381.36421566331694L898.8066379013195 381.36421566331694Q903.9487958151642 379.01759598041167 909.0909537290088 378.8747582605826L909.0909537290088 378.8747582605826Q919.232431836869 378.8747582605826 924.5990490247307 383.79245690041023Q929.9452608240451 388.7101555402378 929.9452608240451 395.77041997750064L929.9452608240451 395.77041997750064Q929.9452608240451 408.4013554880951 916.2940558861005 415.3187822055289L916.2940558861005 415.3187822055289Q905.1323083508903 420.88945327886057 885.86962156252 422.2158035344157L885.86962156252 422.2158035344157Q878.9726002336332 439.25430297116276 878.9726002336332 458.80266519919104L878.9726002336332 458.80266519919104Q878.9726002336332 473.35170723320374 885.726783842691 475.69832691610907L885.726783842691 475.69832691610907Q890.4404285970486 477.31035261132223 892.7870482799538 475.75954308175005Q895.1336679628591 474.2291389407249 896.4600182184142 471.65805998380256Q897.7863684739694 469.08698102688027 897.8475846396104 464.0876608328647Q897.9292061937984 459.0883406388491 895.0520464086711 455.6398299744057Q892.1952920120907 452.1913193099623 889.5425915009805 449.2529433591939L889.5425915009805 449.2529433591939Q890.8689417565356 444.39646088500734 893.3788045478169 441.17240949458096L893.3788045478169 441.17240949458096Q898.0720439136275 434.8467390450102 901.4593384124298 434.8467390450102Q904.8262275226853 434.8467390450102 906.9687933201205 437.1933587279155Q909.0909537290088 439.5603837993678 910.4173039845639 443.0701106294522Q911.743654240119 446.6002428480836 912.5394643934521 450.72213133457814Q913.3556799353323 454.8236144325256 914.3759493626824 458.353746651157Q915.4166241785795 461.8838788697884 916.9470283196047 464.2304985526937Q918.4978378491769 466.577118235599 921.0689168060992 466.577118235599Q923.6399957630215 466.577118235599 925.7009400062686 464.59779554653977Q927.741478860969 462.6184728574805 929.3739099447291 460.27185317457526Q930.9859356399423 457.92523349167 932.3122858954976 455.9255054140637Q933.6182307625056 453.94618272500446 935.0262025722488 453.94618272500446Q936.4137689934449 453.94618272500446 937.821740803188 456.29280240790973Q939.2093072243842 458.65982747936204 939.2093072243842 460.70036633406227L939.2093072243842 460.70036633406227Q939.2093072243842 465.41401108841984 934.5772840242148 471.8825192578196Q929.9452608240451 478.33062203867235 922.7625640555003 478.26940587303136Q915.5594618984085 478.18778431884334 911.5804111317431 475.249408368075L911.5804111317431 475.249408368075Q909.0909537290088 481.43224109781676 903.071364107643 485.5337241957642Q897.0517744862773 489.65561268225866 885.951243116708 489.65561268225866Q874.8507117471387 489.65561268225866 866.9334209909018 483.92169850055103L866.9334209909018 483.92169850055103Q857.3836991509047 477.0246771716642 857.3836991509047 462.4756351376515L857.3836991509047 462.4756351376515Q857.3836991509047 441.76416576244407 867.5047718702178 419.2774275836474ZM913.7841930948193 398.42312048861095L913.7841930948193 398.42312048861095Q913.6413553749903 393.28096257476636 910.0500069907179 393.28096257476636Q906.4382532178984 393.28096257476636 900.7247444247378 398.70879592826896Q894.9908302430301 404.1366292817716 889.7058346093564 413.84959423014476L889.7058346093564 413.84959423014476Q905.7036592302063 411.05405599920545 911.5804111317431 403.9937915619426L911.5804111317431 403.9937915619426Q913.6413553749903 401.36149643937927 913.7841930948193 398.42312048861095ZM964.6344213539494 417.1552671747591Q974.4698186336045 417.07364562057114 979.3263011077911 420.8282371132196Q984.1623781934306 424.562423217321 984.1623781934306 431.5410661003958Q984.1623781934306 438.51970898347065 979.9792735412951 443.43740762329827Q975.7961688891596 448.3755116516728 969.776579267794 450.4160505063731L969.776579267794 450.4160505063731Q974.0209000855705 454.8236144325256 977.4898161385609 459.39442146705414Q980.9383268030042 463.9448231130357 980.9383268030042 468.94414330705126L980.9383268030042 468.94414330705126Q980.9383268030042 478.77954058670645 973.1434683780493 484.14615777456805Q965.3690153416414 489.51277496242966 951.4729457411328 489.51277496242966Q937.5972815291711 489.51277496242966 930.6798548117373 484.00332005473905Q923.7828334828505 478.4938651470484 923.7828334828505 471.51522226397356Q923.7828334828505 464.53657938089873 927.2313441472938 458.80266519919104Q930.6798548117373 453.0687510174834 934.6589055784027 453.0687510174834L934.6589055784027 453.0687510174834Q937.0055252613081 453.0687510174834 938.0257946886582 454.7623982668846Q939.0664695045552 456.45604551628577 941.8620077354947 464.53657938089873L941.8620077354947 464.53657938089873Q942.8822771628447 467.4749553316671 945.2288968457501 470.1072504542304L945.2288968457501 470.1072504542304Q950.6771355877996 476.1268400755961 962.430639390873 476.1268400755961L962.430639390873 476.1268400755961Q960.6553705872839 470.5561690022644 956.7579413748064 466.515902069958Q952.8809175508759 462.4756351376515 949.0447045040394 458.65982747936204Q945.2288968457501 454.8236144325256 942.2905208949817 450.49767206056106Q939.3521449442133 446.1717296885966 939.3521449442133 440.29497778705985L939.3521449442133 440.29497778705985Q939.3521449442133 429.70458113116564 947.2898410889973 423.09323524193684L947.2898410889973 423.09323524193684Q954.7786186857472 417.21648334040015 964.6344213539494 417.1552671747591ZM964.0426650860862 444.39646088500734L964.0426650860862 444.39646088500734Q969.919416987623 438.0911958239836 969.919416987623 434.2549827771472L969.919416987623 434.2549827771472Q969.919416987623 432.50011936210495 968.6746882862558 431.1125529409088Q967.4095541963416 429.70458113116564 965.0629345134364 429.70458113116564Q962.716314830531 429.70458113116564 960.5941544216428 430.2963373990287Q958.4515886242075 430.88809366689173 957.1252383686524 431.1737691065498L957.1252383686524 431.1737691065498Q957.1252383686524 436.7648455684285 964.0426650860862 444.39646088500734ZM1051.6021873412735 413.5435134019397L1051.6021873412735 413.5435134019397Q1051.6021873412735 410.91121827937644 1053.520293864692 410.91121827937644L1053.520293864692 410.91121827937644Q1056.45866981546 410.91121827937644 1059.5398834860575 412.1559469807436Q1062.6210971566547 413.4006756821107 1066.1512293752862 414.13526966980277L1066.1512293752862 414.13526966980277Q1077.9047331783597 389.01623636844283 1093.1883692000645 381.36421566331694L1093.1883692000645 381.36421566331694Q1098.473364833738 378.7319205407536 1103.7583604674116 378.7319205407536L1103.7583604674116 378.7319205407536Q1113.5937577470668 378.8747582605826 1117.0626738000574 383.4251599065642Q1120.5111844645007 387.9755615525457 1120.5111844645007 395.17866370963753L1120.5111844645007 395.17866370963753Q1120.3683467446717 408.8502740361291 1108.7576806614275 416.70634862672506Q1097.147014578183 424.562423217321 1080.3941905810939 425.4398549248421L1080.3941905810939 425.4398549248421Q1076.1294643747706 436.7648455684285 1073.7828446918652 449.5386187988519L1073.7828446918652 449.5386187988519Q1079.5167588735728 447.33483683577566 1088.474724445707 447.33483683577566L1088.474724445707 447.33483683577566Q1089.658236981433 456.5988832361148 1092.5966129322014 460.55752861423326Q1095.5349888829696 464.53657938089873 1099.1263372672422 464.53657938089873Q1102.7380910400616 464.53657938089873 1105.1459268886078 462.76131057730953Q1107.5741681257011 461.0064471622673 1109.4106530949314 458.80266519919104Q1111.2471380641616 456.5988832361148 1112.4918667655288 454.8236144325256Q1113.757000855443 453.0687510174834 1114.920108002622 453.0687510174834L1114.920108002622 453.0687510174834Q1117.4299707939033 453.0687510174834 1117.4299707939033 457.4763149436359L1117.4299707939033 457.4763149436359Q1117.4299707939033 466.29144279594095 1113.0224068677508 472.0865731432896Q1108.6148429415985 477.9021088791853 1099.4936342610883 477.9021088791853L1099.4936342610883 477.9021088791853Q1085.2506730552805 477.9021088791853 1079.2310834339148 470.4133312824354L1079.2310834339148 470.4133312824354Q1082.4551348243413 502.73546674088726 1082.4551348243413 508.89789408208196L1082.4551348243413 508.89789408208196Q1082.4551348243413 519.9168038974633 1075.5581134954543 524.6100432632738L1075.5581134954543 524.6100432632738Q1069.8241993137467 528.5890940299394 1060.9274499072537 528.5890940299394Q1052.0511058893076 528.5890940299394 1048.5821898363172 524.5488270976327Q1045.1336791718738 520.5085601653263 1045.1336791718738 514.9174837034477L1045.1336791718738 514.9174837034477Q1045.1336791718738 479.5141345743985 1055.275157279734 443.6618668973153L1055.275157279734 443.6618668973153Q1058.4992086701604 432.21444392244695 1062.6210971566547 422.2158035344157L1062.6210971566547 422.2158035344157Q1051.6021873412735 417.35932106022915 1051.6021873412735 413.5435134019397ZM1066.2940670951152 517.264103386353Q1068.0489305101573 517.264103386353 1069.5181184855417 514.5501867096016Q1070.987306460926 511.83627003285034 1070.987306460926 508.75505636225296L1070.987306460926 508.75505636225296Q1070.987306460926 498.61357825439273 1068.2121736185336 477.5960280509803L1068.2121736185336 477.5960280509803Q1064.5392036800731 492.73682635285604 1063.212853424518 507.7143815463558L1063.212853424518 507.7143815463558Q1062.906772596313 510.9588383253292 1062.906772596313 511.69343231302133L1062.906772596313 511.69343231302133Q1062.906772596313 517.264103386353 1066.2940670951152 517.264103386353L1066.2940670951152 517.264103386353ZM1102.5748479316856 393.28096257476636L1102.5748479316856 393.28096257476636Q1099.6364719809173 393.28096257476636 1094.5759356212607 398.85163364809796Q1089.515399261604 404.44271010997664 1084.2099982393834 415.890133084845L1084.2099982393834 415.890133084845Q1094.9432326151068 411.19689371903445 1098.330527113909 408.7074363163001L1098.330527113909 408.7074363163001Q1105.227548442796 403.85095384211354 1105.227548442796 397.09677023305574L1105.227548442796 397.09677023305574Q1105.227548442796 393.28096257476636 1102.5748479316856 393.28096257476636ZM1169.4229008116654 475.84116463593807L1169.4229008116654 475.84116463593807Q1157.8326401169682 489.51277496242966 1141.5899508335542 489.51277496242966Q1125.3472615501403 489.51277496242966 1117.2667276855273 481.20778182379973Q1109.1861938209145 472.9027886851697 1109.3494369292903 460.55752861423326L1109.3494369292903 460.55752861423326Q1109.1861938209145 443.0701106294522 1120.3683467446717 430.4391751188577Q1131.530094279882 417.8082396082632 1149.588863143979 417.8082396082632L1149.588863143979 417.8082396082632Q1157.8326401169682 417.8082396082632 1162.8115549224367 419.86918385151046L1162.8115549224367 419.86918385151046Q1171.4838450549128 423.3993160701419 1171.4838450549128 426.48052974073926L1171.4838450549128 426.48052974073926Q1171.4838450549128 428.8271494236445 1159.3630442579934 428.90877097783255Q1147.242243461074 428.96998714347353 1139.1004934308198 437.2749802821035Q1130.938338012019 445.5799734207335 1130.938338012019 458.210908931328L1130.938338012019 458.210908931328Q1130.938338012019 464.8222548205568 1134.8357672244965 469.3114403008973Q1138.7331964369737 473.7802203926908 1145.8546770398777 473.7802203926908Q1152.9761576427816 473.7802203926908 1157.6693970085921 470.8418444419225L1157.6693970085921 470.8418444419225Q1147.242243461074 463.8019853932067 1147.242243461074 450.4160505063731L1147.242243461074 450.4160505063731Q1147.099405741245 443.3761914576572 1152.3231852092774 437.5606557217615Q1157.526559288763 431.76552537441285 1165.688714707564 431.6839038202248Q1173.830464737818 431.62268765458384 1177.3605969564494 436.1730893005654Q1180.8907291750809 440.7234909465469 1180.8907291750809 447.84497154945075Q1180.8907291750809 454.9868575409016 1177.5034346762784 462.90414829713853L1177.5034346762784 462.90414829713853L1178.4012717723465 462.90414829713853Q1184.8493745531991 462.76131057730953 1189.5630193075567 458.353746651157L1189.5630193075567 458.353746651157Q1191.317882722599 456.5988832361148 1192.5626114239662 455.2725329805597Q1193.8277455138805 453.94618272500446 1195.1336903808885 453.94618272500446L1195.1336903808885 453.94618272500446Q1197.1946346241357 453.94618272500446 1197.1946346241357 458.80266519919104L1197.1946346241357 458.80266519919104Q1197.1946346241357 467.7606307713251 1191.909638990462 472.24981625166566Q1186.6246433567885 476.7185963434592 1180.2377567415767 476.7185963434592Q1173.830464737818 476.7185963434592 1169.4229008116654 475.84116463593807ZM1168.1169559446573 458.80266519919104L1168.1169559446573 458.80266519919104Q1170.6064133473915 453.51766956551745 1170.6064133473915 448.5183493715018Q1170.6064133473915 443.51902917748623 1167.3823619569653 443.51902917748623L1167.3823619569653 443.51902917748623Q1166.05601170141 443.51902917748623 1165.1785799938891 445.4371357009045Q1164.2807428978208 447.33483683577566 1164.2807428978208 449.1101056393649L1164.2807428978208 449.1101056393649Q1164.2807428978208 454.9868575409016 1168.1169559446573 458.80266519919104ZM1211.2947581101143 463.63874228483064L1211.2947581101143 463.63874228483064L1212.1925952061824 481.57507881764576Q1212.1925952061824 485.1052110362771 1208.519625267722 487.8803438786695Q1204.8466553292617 490.67588210960884 1198.5209848796908 490.67588210960884L1198.5209848796908 490.67588210960884Q1194.8480149412305 490.67588210960884 1193.4604485200343 486.86007445131935Q1192.052476710291 483.0442667930299 1192.052476710291 475.69832691610907L1192.052476710291 475.69832691610907Q1192.052476710291 460.27185317457526 1193.6032862398633 451.5179414879112Q1195.1336903808885 442.7844351897942 1199.704497415417 433.8264696176601L1199.704497415417 433.8264696176601Q1192.9299084178124 427.35796144826037 1192.9299084178124 422.66472208244977L1192.9299084178124 422.66472208244977Q1192.9299084178124 412.8089194142476 1203.5203050737064 412.8089194142476L1203.5203050737064 412.8089194142476Q1208.9481384272092 412.8089194142476 1213.0700269137037 418.5428335959553L1213.0700269137037 418.5428335959553Q1216.008402864472 422.5014789740738 1217.3347531200272 427.8068799962944L1217.3347531200272 427.8068799962944Q1219.3752919747276 428.54147398398646 1222.4769110338718 428.54147398398646L1222.4769110338718 428.54147398398646Q1226.7212318516483 428.54147398398646 1232.312308313527 425.74593575304715L1232.312308313527 425.74593575304715L1236.1281159718164 423.82782922962895Q1237.9033847754056 422.95039752210783 1239.2093296424136 422.95039752210783L1239.2093296424136 422.95039752210783Q1243.4740558487372 422.95039752210783 1247.7387820550607 435.4384953128733L1247.7387820550607 435.4384953128733Q1246.4124317995056 441.17240949458096 1244.8820276584804 446.4574051282546Q1243.3312181289082 451.7424007619282 1241.270273885661 459.2311783586781Q1239.2093296424136 466.740361343975 1239.1481134767728 469.3114403008973Q1239.0664919225846 471.8825192578196 1240.6785176177978 471.8825192578196L1240.6785176177978 471.8825192578196Q1242.8822995808741 471.8825192578196 1246.1267563598476 469.08698102688027Q1249.3508077502738 466.29144279594095 1252.5952645292473 462.98576985132655Q1255.8193159196735 459.68009690671215 1258.533232596425 456.88455867577284Q1261.2471492731765 454.08902044483347 1262.2878240890736 454.08902044483347L1262.2878240890736 454.08902044483347Q1264.3487683323206 454.08902044483347 1264.3487683323206 459.0883406388491L1264.3487683323206 459.0883406388491Q1264.3487683323206 469.22981874670927 1255.4520189258276 479.06521602636445Q1246.5552695193346 488.9210186945666 1235.1078465444662 488.7781809747376L1235.1078465444662 488.7781809747376Q1228.3536629354085 488.7781809747376 1224.966368436606 483.329942232688Q1221.5790739378035 477.9021088791853 1221.4362362179747 470.1072504542304L1221.4362362179747 470.1072504542304Q1221.4362362179747 454.68077671269657 1228.3536629354085 440.8663286663759L1228.3536629354085 440.8663286663759Q1225.109206156435 442.1926789219311 1221.0689392241284 442.1926789219311Q1217.0286722918222 442.1926789219311 1215.2738088767799 441.90700348227307L1215.2738088767799 441.90700348227307Q1213.9474586212245 447.4776745556047 1212.6211083656694 453.1503725716714Q1211.2947581101143 458.80266519919104 1211.2947581101143 463.63874228483064ZM1358.5196364767369 481.86075425730377L1358.5196364767369 481.86075425730377Q1358.5196364767369 490.53304438977983 1341.623974759819 490.53304438977983L1341.623974759819 490.53304438977983Q1337.9510048213583 490.53304438977983 1337.2776269993074 486.77845289713133Q1336.6246545658034 483.0442667930299 1336.6246545658034 477.45319033115123Q1336.6246545658034 471.8825192578196 1337.4408701076834 465.4752272540608Q1338.2366802610163 459.0883406388491 1339.5630305165716 451.5995630420992L1339.5630305165716 451.5995630420992Q1342.0524879193058 437.1933587279155 1346.6845111194755 420.52215628501455Q1351.316534319645 403.85095384211354 1355.8669359656265 394.75015055015047L1355.8669359656265 394.75015055015047Q1346.6232949538344 395.3215014294666 1337.5020862733243 398.05582349476487Q1328.4012829813612 400.7697401715162 1324.5854753230717 401.87163115305435Q1320.7492622762354 402.9735221345925 1318.259804873501 402.9735221345925Q1315.7703474707666 402.9735221345925 1315.7703474707666 401.36149643937927L1315.7703474707666 401.36149643937927Q1315.7703474707666 399.44338991596106 1318.708723421535 395.6887984233126Q1321.6470993723035 391.95461231921115 1327.074932725806 388.1388046609217L1327.074932725806 388.1388046609217Q1340.8893807721267 378.7319205407536 1357.7850424890446 378.5890828209246L1357.7850424890446 378.5890828209246L1406.1254079568935 379.01759598041167Q1410.084053335012 379.01759598041167 1410.084053335012 382.098809651009L1410.084053335012 382.098809651009Q1410.084053335012 382.9966467470771 1408.9005407992856 385.2616448757944Q1407.7374336521066 387.5470483930586 1406.8600019445855 390.17934351562195L1406.8600019445855 390.17934351562195Q1404.9418954211671 395.4847445378426 1398.8406842456136 395.4847445378426Q1392.7394730700598 395.4847445378426 1369.824221731776 394.5869074417745L1369.824221731776 394.5869074417745Q1369.232465463913 401.0554156111742 1367.477602048871 411.11527216484643Q1365.7227386338286 421.1955341070656 1363.6617943905815 433.091875629968L1363.6617943905815 433.091875629968Q1358.6624741965659 463.4959045650016 1358.5196364767369 481.86075425730377ZM1423.7556636615036 472.31103241730665L1423.7556636615036 472.31103241730665Q1435.2030866363718 472.31103241730665 1445.936321012095 463.2102291253436L1445.936321012095 463.2102291253436Q1449.8949663902138 459.8229346265412 1452.404829181495 456.96618022996086Q1454.8942865842291 454.08902044483347 1456.2206368397842 454.08902044483347L1456.2206368397842 454.08902044483347Q1458.2815810830316 454.08902044483347 1458.2815810830316 458.210908931328Q1458.2815810830316 462.33279741782246 1456.0777991199552 467.3933337774791Q1453.874017156879 472.45387013713565 1448.7318592430345 477.31035261132223L1448.7318592430345 477.31035261132223Q1436.080518343893 489.2066941342246 1414.0426987131304 489.2066941342246L1414.0426987131304 489.2066941342246Q1396.5756861168963 489.2066941342246 1390.2500156673257 476.5757586236302L1390.2500156673257 476.5757586236302Q1388.0462337042493 472.16819469747765 1388.0462337042493 463.9448231130357Q1388.0462337042493 455.72145152859366 1391.2702850946755 446.82470212210063Q1394.514741873649 437.9279527156076 1399.8813590615107 431.47984993475484Q1405.2275708608254 425.0113417653551 1412.287835298088 421.39958799253566Q1419.348099735351 417.8082396082632 1427.347012045776 417.8082396082632Q1435.3459243562008 417.8082396082632 1439.6922721167123 421.7668849863817Q1444.018214488677 425.74593575304715 1444.018214488677 432.0512008140709Q1444.018214488677 438.37687126364165 1440.8553792638916 442.4171381959481Q1437.712949427653 446.4574051282546 1432.7136292336374 449.1713218050059Q1427.7143090396219 451.88523848175726 1421.6130978640683 454.0278042791925Q1415.5118866885143 456.14996468808073 1409.635134786978 458.80266519919104L1409.635134786978 458.80266519919104L1409.635134786978 462.4756351376515Q1409.7983778953537 467.7606307713251 1414.0426987131304 469.9644127344014Q1418.3074249194538 472.16819469747765 1423.7556636615036 472.31103241730665ZM1421.2458008702222 430.88809366689173L1421.2458008702222 430.88809366689173Q1413.6141855536432 430.88809366689173 1410.675809602875 448.6611870913309L1410.675809602875 448.6611870913309Q1413.7570232734722 446.6002428480836 1416.4709399502237 444.98821715287045Q1419.184856626975 443.3761914576572 1421.2458008702222 441.90700348227307L1421.2458008702222 441.90700348227307Q1425.6533647963747 438.6625467032997 1425.7962025162037 434.5610636053522L1425.7962025162037 434.5610636053522Q1425.7962025162037 430.88809366689173 1421.2458008702222 430.88809366689173ZM1541.1274585838612 453.66050728534645L1541.1274585838612 453.66050728534645Q1543.7801590949719 453.66050728534645 1543.7801590949719 460.41469089440426L1543.7801590949719 460.41469089440426Q1543.7801590949719 464.0876608328647 1540.6989454243742 469.3114403008973Q1537.617731753777 474.5148143803829 1532.6796277254023 478.8611621408944Q1527.7619290855748 483.1871045128589 1521.742339464209 485.9826427437983Q1515.7227498428433 488.7781809747376 1509.9888356611357 488.7781809747376L1509.9888356611357 488.7781809747376Q1502.193977236181 488.7781809747376 1499.5616821136175 475.10657064824596L1499.5616821136175 475.10657064824596Q1495.745874455328 481.43224109781676 1489.5630417255863 485.4725080301232Q1483.4006143843915 489.51277496242966 1473.0346770025142 489.51277496242966Q1462.6891450091841 489.51277496242966 1456.3634745596135 483.0442667930299Q1450.0378041100428 476.5757586236302 1450.2010472184186 467.31171222329107L1450.2010472184186 467.31171222329107Q1450.2010472184186 442.33551664176014 1466.7906281071316 427.9497177161234L1466.7906281071316 427.9497177161234Q1473.8508925443946 421.9301280947577 1479.9521037199481 420.01202157133946Q1486.0329095069549 418.09391504792126 1492.8074985045596 418.09391504792126Q1499.5616821136175 418.09391504792126 1503.826408319941 420.46094011937356L1503.826408319941 420.46094011937356Q1505.8669471746412 416.19621391305003 1508.5196476857514 416.19621391305003L1508.5196476857514 416.19621391305003Q1513.6618055995962 416.19621391305003 1518.2938287997656 420.66499400484355Q1522.925851999935 425.1541794851841 1522.925851999935 429.11282486330254L1522.925851999935 429.11282486330254Q1520.864907756688 433.9693073374891 1516.8858569900224 440.7234909465469L1516.8858569900224 440.7234909465469Q1515.7227498428433 447.4776745556047 1515.7227498428433 459.68009690671215Q1515.7227498428433 471.8825192578196 1518.8039635134407 471.8825192578196L1518.8039635134407 471.8825192578196Q1522.6197711717302 471.8825192578196 1537.3116509255717 456.5988832361148L1537.3116509255717 456.5988832361148Q1539.9643514366824 453.66050728534645 1541.1274585838612 453.66050728534645ZM1471.7899483011472 462.4756351376515L1471.7899483011472 462.4756351376515Q1471.7899483011472 473.7802203926908 1480.156157605418 473.7802203926908L1480.156157605418 473.7802203926908Q1489.1345285660993 473.6373826728618 1495.011280467636 464.2304985526937L1495.011280467636 464.2304985526937Q1497.0518193223363 461.0064471622673 1498.3781695778914 456.29280240790973L1498.3781695778914 456.29280240790973Q1498.3781695778914 439.8460592390258 1501.3165455286596 428.0925554359524L1501.3165455286596 428.0925554359524Q1489.4202040057573 430.4391751188577 1480.6050761534523 439.5603837993678Q1471.7899483011472 448.6611870913309 1471.7899483011472 462.4756351376515ZM1594.7528196853839 453.66050728534645L1594.7528196853839 453.66050728534645Q1597.4055201964939 453.66050728534645 1597.4055201964939 458.12928737714Q1597.4055201964939 462.6184728574805 1595.12011667923 467.7606307713251Q1592.8551185505123 472.9027886851697 1588.2230953503429 477.67764960516826Q1583.5910721501734 482.4525105251668 1576.3879699930815 485.83980502396923Q1569.2052732245368 489.2066941342246 1559.4310921105225 489.2066941342246Q1549.6569109965083 489.2066941342246 1542.3109711195873 483.411563786876Q1534.9650312426668 477.5960280509803 1534.9650312426668 466.658739789787Q1534.9650312426668 455.72145152859366 1538.4135419071101 446.82470212210063Q1541.8620525715535 437.9279527156076 1547.53475058762 431.47984993475484Q1553.1870432151397 425.0113417653551 1560.3901453722317 421.39958799253566Q1567.5728421407764 417.8082396082632 1574.041350310176 417.8082396082632L1574.041350310176 417.8082396082632Q1585.3663409537626 417.8082396082632 1585.3663409537626 426.76620518039726L1585.3663409537626 426.76620518039726Q1585.3663409537626 431.9083630942419 1583.2237751563273 434.9895767648392Q1581.101614747439 438.0911958239836 1578.8978327843627 438.0911958239836L1578.8978327843627 438.0911958239836Q1575.9594568335945 438.0911958239836 1573.755674870518 436.0302515807364Q1571.5518929074422 433.9693073374891 1568.8991923963317 433.8876857833011Q1566.266897273768 433.8264696176601 1563.838656036675 436.45876474022344Q1561.4104147995818 439.11146525133375 1559.7983891043687 443.2333537378282L1559.7983891043687 443.2333537378282Q1556.5539323253952 451.4567253222702 1556.5539323253952 462.4756351376515L1556.5539323253952 462.4756351376515Q1556.7171754337712 467.7606307713251 1561.4104147995818 470.4133312824354L1561.4104147995818 470.4133312824354Q1564.6344661900082 472.16819469747765 1569.0420301161607 472.24981625166566Q1573.4495940423133 472.31103241730665 1577.4898609746197 469.37265646653833Q1581.530127906926 466.43428051576996 1584.9174224057285 462.98576985132655Q1588.304716904531 459.53725918688315 1590.875795861453 456.5988832361148Q1593.4468748183756 453.66050728534645 1594.7528196853839 453.66050728534645ZM1638.991702055285 438.9686275315047L1638.991702055285 438.9686275315047Q1638.991702055285 433.6836318978311 1632.7476531599023 433.6836318978311Q1626.5036042645195 433.6836318978311 1620.4636092546068 443.2945699034692Q1614.444019633241 452.92591329765435 1612.9748316578568 462.90414829713853L1612.9748316578568 462.90414829713853Q1613.2809124860619 466.29144279594095 1613.56658792572 469.67873729474337Q1613.8522633653777 473.04562640499876 1613.8522633653777 476.2900831839721L1613.8522633653777 476.2900831839721Q1613.8522633653777 484.06453622038003 1608.7101054515333 486.86007445131935L1608.7101054515333 486.86007445131935Q1606.3634857686282 488.1864247068745 1604.24132535974 489.3495318540537Q1602.0987595623044 490.53304438977983 1599.323626719912 490.53304438977983Q1596.5280884889728 490.53304438977983 1594.3855226915377 486.77845289713133Q1592.2633622826495 483.0442667930299 1592.2633622826495 475.10657064824596L1592.2633622826495 475.10657064824596Q1592.2633622826495 452.92591329765435 1595.4874136730757 436.6220078485994L1595.4874136730757 436.6220078485994Q1600.4867338670915 411.33973143886345 1615.3214513407622 382.54772819904304L1615.3214513407622 382.54772819904304Q1617.3823955840094 378.5890828209246 1621.361446350675 378.6502989865656Q1625.3200917287934 378.7319205407536 1627.8095491315275 384.15975389425626Q1630.319411922809 389.6079926363059 1630.2377903686208 393.28096257476636Q1630.17657420298 396.95393251322673 1629.0746832214415 400.4024431776702Q1627.9727922399036 403.85095384211354 1626.2791449905023 407.156626786728Q1624.585497741101 410.46229973134234 1622.4633373322129 413.91081039578575Q1620.3207715347778 417.35932106022915 1618.2598272915304 421.3383718268946L1618.2598272915304 421.3383718268946L1616.0560453284543 431.9083630942419Q1621.789959510162 422.3586412542448 1631.482519069988 419.1345898638184L1631.482519069988 419.1345898638184Q1635.0126512886193 417.95107732809225 1639.277377494943 417.95107732809225L1639.277377494943 417.95107732809225Q1649.276017882974 417.95107732809225 1654.4181757968186 422.44026280843275Q1659.5603337106634 426.90904290022627 1659.5603337106634 435.07119831902725Q1659.5603337106634 443.2333537378282 1657.417767913228 451.5995630420992Q1655.2956075043396 459.9657723463702 1654.3365542426307 463.5775261191896Q1653.3775009809215 467.16887450346206 1653.3775009809215 469.51549418636733Q1653.3775009809215 471.8825192578196 1654.9895266761348 471.8825192578196L1654.9895266761348 471.8825192578196Q1657.1933086392112 471.8825192578196 1660.4377654181847 469.08698102688027Q1663.6618168086109 466.29144279594095 1666.9062735875843 462.98576985132655Q1670.1303249780105 459.68009690671215 1672.844241654762 456.88455867577284Q1675.5581583315131 454.08902044483347 1676.5988331474102 454.08902044483347L1676.5988331474102 454.08902044483347Q1678.6597773906576 454.08902044483347 1678.6597773906576 459.0883406388491L1678.6597773906576 459.0883406388491Q1678.6597773906576 469.37265646653833 1668.5182992827974 478.92237830653545L1668.5182992827974 478.92237830653545Q1651.4797998460501 488.9210186945666 1646.7661550916928 488.9210186945666L1646.7661550916928 488.9210186945666Q1646.3376419322055 488.9210186945666 1646.1743988238297 488.7781809747376L1646.1743988238297 488.7781809747376Q1634.4208950207565 488.7781809747376 1634.4208950207565 469.9644127344014L1634.4208950207565 469.9644127344014Q1634.4208950207565 461.8838788697884 1635.9717045503287 455.12969526073067Q1637.5225140799007 448.3755116516728 1638.2571080675928 445.27389259252845Q1638.991702055285 442.1926789219311 1638.991702055285 438.9686275315047ZM1705.5336741070598 472.31103241730665L1705.5336741070598 472.31103241730665Q1717.001502470475 472.31103241730665 1727.7143314576513 463.2102291253436L1727.7143314576513 463.2102291253436Q1731.693382224317 459.8229346265412 1734.182839627051 456.96618022996086Q1736.6927024183326 454.08902044483347 1737.9986472853404 454.08902044483347L1737.9986472853404 454.08902044483347Q1740.0595915285878 454.08902044483347 1740.0595915285878 458.210908931328Q1740.0595915285878 462.33279741782246 1737.855809565512 467.3933337774791Q1735.652027602435 472.45387013713565 1730.5098696885905 477.31035261132223L1730.5098696885905 477.31035261132223Q1717.8789341779964 489.2066941342246 1695.8411145472335 489.2066941342246L1695.8411145472335 489.2066941342246Q1678.3536965624523 489.2066941342246 1672.0484315014287 476.5757586236302L1672.0484315014287 476.5757586236302Q1669.8446495383525 472.16819469747765 1669.8446495383525 463.9448231130357Q1669.8446495383525 455.72145152859366 1673.068700928779 446.82470212210063Q1676.2927523192054 437.9279527156076 1681.659369507067 431.47984993475484Q1687.0259866949284 425.0113417653551 1694.0862511321914 421.39958799253566Q1701.126110180907 417.8082396082632 1709.145427879879 417.8082396082632Q1717.144340190304 417.8082396082632 1721.4702825622687 421.7668849863817Q1725.8166303227802 425.74593575304715 1725.8166303227802 432.0512008140709Q1725.8166303227802 438.37687126364165 1722.6537950979948 442.4171381959481Q1719.4909598732095 446.4574051282546 1714.491639679194 449.1713218050059Q1709.5127248737251 451.88523848175726 1703.4115136981716 454.0278042791925Q1697.3103025226176 456.14996468808073 1691.4335506210812 458.80266519919104L1691.4335506210812 458.80266519919104L1691.4335506210812 462.4756351376515Q1691.5763883409102 467.7606307713251 1695.8411145472335 469.9644127344014Q1700.1058407535572 472.16819469747765 1705.5336741070598 472.31103241730665ZM1703.0442167043254 430.88809366689173L1703.0442167043254 430.88809366689173Q1695.3921959991997 430.88809366689173 1692.4538200484315 448.6611870913309L1692.4538200484315 448.6611870913309Q1695.5554391075755 446.6002428480836 1698.269355784327 444.98821715287045Q1700.9832724610783 443.3761914576572 1703.0442167043254 441.90700348227307L1703.0442167043254 441.90700348227307Q1707.4517806304777 438.6625467032997 1707.5946183503067 434.5610636053522L1707.5946183503067 434.5610636053522Q1707.5946183503067 430.88809366689173 1703.0442167043254 430.88809366689173ZM1754.1597150145665 463.63874228483064L1754.1597150145665 463.63874228483064L1755.0575521106346 481.57507881764576Q1755.0575521106346 485.1052110362771 1751.384582172174 487.8803438786695Q1747.7116122337136 490.67588210960884 1741.385941784143 490.67588210960884L1741.385941784143 490.67588210960884Q1737.7129718456824 490.67588210960884 1736.3254054244865 486.86007445131935Q1734.9174336147432 483.0442667930299 1734.9174336147432 475.69832691610907L1734.9174336147432 475.69832691610907Q1734.9174336147432 460.27185317457526 1736.4682431443155 451.5179414879112Q1737.9986472853404 442.7844351897942 1742.569454319869 433.8264696176601L1742.569454319869 433.8264696176601Q1735.7948653222645 427.35796144826037 1735.7948653222645 422.66472208244977L1735.7948653222645 422.66472208244977Q1735.7948653222645 412.8089194142476 1746.3852619781585 412.8089194142476L1746.3852619781585 412.8089194142476Q1751.813095331661 412.8089194142476 1755.9349838181558 418.5428335959553L1755.9349838181558 418.5428335959553Q1758.873359768924 422.5014789740738 1760.1997100244791 427.8068799962944L1760.1997100244791 427.8068799962944Q1762.2402488791793 428.54147398398646 1765.3418679383237 428.54147398398646L1765.3418679383237 428.54147398398646Q1769.5861887561002 428.54147398398646 1775.177265217979 425.74593575304715L1775.177265217979 425.74593575304715L1778.9930728762686 423.82782922962895Q1780.768341679858 422.95039752210783 1782.0742865468658 422.95039752210783L1782.0742865468658 422.95039752210783Q1786.339012753189 422.95039752210783 1790.6037389595128 435.4384953128733L1790.6037389595128 435.4384953128733Q1789.2773887039577 441.17240949458096 1787.7469845629323 446.4574051282546Q1786.1961750333605 451.7424007619282 1784.1352307901132 459.2311783586781Q1782.0742865468658 466.740361343975 1782.013070381225 469.3114403008973Q1781.9314488270368 471.8825192578196 1783.5434745222499 471.8825192578196L1783.5434745222499 471.8825192578196Q1785.7472564853263 471.8825192578196 1788.9917132642997 469.08698102688027Q1792.215764654726 466.29144279594095 1795.4602214336994 462.98576985132655Q1798.6842728241256 459.68009690671215 1801.3981895008772 456.88455867577284Q1804.1121061776282 454.08902044483347 1805.1527809935258 454.08902044483347L1805.1527809935258 454.08902044483347Q1807.2137252367727 454.08902044483347 1807.2137252367727 459.0883406388491L1807.2137252367727 459.0883406388491Q1807.2137252367727 469.22981874670927 1798.3169758302795 479.06521602636445Q1789.4202264237867 488.9210186945666 1777.9728034489183 488.7781809747376L1777.9728034489183 488.7781809747376Q1771.2186198398606 488.7781809747376 1767.8313253410581 483.329942232688Q1764.4440308422556 477.9021088791853 1764.3011931224266 470.1072504542304L1764.3011931224266 470.1072504542304Q1764.3011931224266 454.68077671269657 1771.2186198398606 440.8663286663759L1771.2186198398606 440.8663286663759Q1767.9741630608871 442.1926789219311 1763.9338961285805 442.1926789219311Q1759.8936291962743 442.1926789219311 1758.1387657812318 441.90700348227307L1758.1387657812318 441.90700348227307Q1756.8124155256767 447.4776745556047 1755.4860652701216 453.1503725716714Q1754.1597150145665 458.80266519919104 1754.1597150145665 463.63874228483064ZM1833.3530279654826 417.1552671747591Q1843.2088306336848 417.07364562057114 1848.0449077193246 420.8282371132196Q1852.9013901935111 424.562423217321 1852.9013901935111 431.5410661003958Q1852.9013901935111 438.51970898347065 1848.7182855413755 443.43740762329827Q1844.514775500693 448.3755116516728 1838.4951858793272 450.4160505063731L1838.4951858793272 450.4160505063731Q1842.759912085651 454.8236144325256 1846.2084227500943 459.39442146705414Q1849.6569334145377 463.9448231130357 1849.6569334145377 468.94414330705126L1849.6569334145377 468.94414330705126Q1849.6569334145377 478.77954058670645 1841.8824803781297 484.14615777456805Q1834.087621953175 489.51277496242966 1820.2119577412134 489.51277496242966Q1806.3158881407046 489.51277496242966 1799.418866811818 484.00332005473905Q1792.5218454829312 478.4938651470484 1792.5218454829312 471.51522226397356Q1792.5218454829312 464.53657938089873 1795.9703561473746 458.80266519919104Q1799.418866811818 453.0687510174834 1803.3775121899364 453.0687510174834L1803.3775121899364 453.0687510174834Q1805.7445372613886 453.0687510174834 1806.7648066887389 454.7623982668846Q1807.7850761160887 456.45604551628577 1810.580614347028 464.53657938089873L1810.580614347028 464.53657938089873Q1811.6212891629255 467.4749553316671 1813.9679088458304 470.1072504542304L1813.9679088458304 470.1072504542304Q1819.395742199333 476.1268400755961 1831.1492460024067 476.1268400755961L1831.1492460024067 476.1268400755961Q1829.3943825873641 470.5561690022644 1825.496953374887 466.515902069958Q1821.5995241624094 462.4756351376515 1817.7837165041199 458.65982747936204Q1813.9679088458304 454.8236144325256 1811.0295328950622 450.49767206056106Q1808.091156944294 446.1717296885966 1808.091156944294 440.29497778705985L1808.091156944294 440.29497778705985Q1808.091156944294 429.70458113116564 1816.0288530890778 423.09323524193684L1816.0288530890778 423.09323524193684Q1823.5176306858277 417.21648334040015 1833.3530279654826 417.1552671747591ZM1832.7612716976198 444.39646088500734L1832.7612716976198 444.39646088500734Q1838.6380235991562 438.0911958239836 1838.6380235991562 434.2549827771472L1838.6380235991562 434.2549827771472Q1838.6380235991562 432.50011936210495 1837.3932948977892 431.1125529409088Q1836.1485661964223 429.70458113116564 1833.801946513517 429.70458113116564Q1831.4553268306115 429.70458113116564 1829.3127610331765 430.2963373990287Q1827.1906006242882 430.88809366689173 1825.864250368733 431.1737691065498L1825.864250368733 431.1737691065498Q1825.864250368733 436.7648455684285 1832.7612716976198 444.39646088500734Z " fill="#292826" transform="matrix(0.472232331543375,0,0,0.472232331543375,0,85.80055740469197)"/></g></svg>