<?xml version="1.0" standalone="no"?>
<!DOCTYPE svg PUBLIC "-//W3C//DTD SVG 20010904//EN"
 "http://www.w3.org/TR/2001/REC-SVG-20010904/DTD/svg10.dtd">
<svg version="1.0" xmlns="http://www.w3.org/2000/svg"
 width="1280.000000pt" height="819.000000pt" viewBox="0 0 1280.000000 819.000000"
 preserveAspectRatio="xMidYMid meet">
<g transform="translate(0.000000,819.000000) scale(0.100000,-0.100000)"
fill="#000000" stroke="none">
<path d="M3517 8169 c-15 -12 -32 -31 -39 -42 -8 -17 -5 -16 15 6 37 39 67 35
112 -14 36 -40 37 -43 30 -96 -6 -49 -18 -99 -40 -171 l-8 -23 33 20 c18 10
39 17 47 14 13 -5 13 -2 4 15 -6 11 -11 53 -11 93 0 82 -22 139 -72 189 -35
35 -35 35 -71 9z"/>
<path d="M3421 8045 c-23 -30 -56 -62 -74 -71 -35 -18 -84 -54 -73 -54 3 0 31
14 60 30 51 29 77 56 119 123 29 45 12 31 -32 -28z"/>
<path d="M3185 7885 c-47 -27 -71 -35 -111 -35 -40 0 -59 -6 -91 -29 -57 -41
-78 -72 -92 -135 -8 -34 -29 -80 -55 -118 -35 -51 -56 -70 -112 -101 -87 -48
-167 -126 -202 -197 -38 -78 -37 -179 2 -267 l28 -62 -33 -88 -34 -88 0 -285
1 -285 58 -114 c32 -64 61 -136 66 -165 7 -45 -2 -182 -15 -226 -3 -9 -51 -38
-107 -65 -224 -109 -449 -285 -640 -500 -255 -286 -444 -665 -522 -1046 -37
-180 -58 -437 -46 -574 21 -249 74 -490 150 -676 16 -41 30 -80 30 -87 0 -7
10 -29 23 -50 13 -20 47 -84 77 -142 47 -94 66 -126 114 -195 7 -11 30 -46 50
-77 21 -31 72 -94 114 -140 118 -127 122 -134 122 -220 0 -91 36 -205 133
-419 37 -81 72 -171 78 -200 29 -134 58 -238 79 -279 13 -26 83 -107 165 -190
78 -80 177 -185 220 -235 43 -49 91 -96 107 -103 54 -23 193 -141 254 -214 49
-59 74 -80 132 -109 40 -20 72 -31 72 -25 0 6 -48 66 -108 134 -70 80 -129
137 -173 166 -76 51 -194 174 -204 213 -3 15 -22 44 -41 65 -40 44 -41 49 -14
73 20 18 20 18 -7 37 -16 10 -50 25 -78 34 -66 22 -225 101 -249 124 -17 17
-32 76 -88 353 -9 45 -17 61 -33 67 -16 6 -37 46 -79 145 -104 246 -131 355
-122 483 3 42 10 190 15 327 10 276 22 385 51 472 38 111 53 123 150 123 49 0
64 -4 90 -27 30 -24 32 -30 26 -70 -3 -27 -2 -42 4 -38 15 10 30 -31 31 -87 0
-45 16 -115 18 -82 1 14 45 34 74 34 15 0 40 -20 74 -58 49 -57 234 -196 331
-250 38 -22 60 -26 117 -26 94 0 161 20 188 56 19 25 27 28 79 28 51 0 60 3
68 22 10 24 90 652 90 707 0 28 5 34 46 51 25 11 67 20 93 20 26 0 73 7 104
15 80 21 79 21 72 -32 -10 -73 54 -704 75 -743 6 -11 26 -19 56 -23 41 -4 53
-11 88 -51 37 -42 47 -47 93 -53 50 -5 60 -2 175 55 108 54 263 159 347 235
70 64 202 275 229 367 6 19 13 67 17 107 6 72 6 72 -29 111 -27 29 -36 48 -36
74 l0 35 -227 11 c-261 14 -472 31 -523 41 -25 5 -34 12 -32 24 2 9 -4 47 -13
82 -9 36 -15 72 -12 79 3 7 40 25 84 40 43 15 131 50 196 78 65 27 126 48 135
46 38 -7 80 -128 50 -142 -7 -3 19 -3 57 -1 39 3 86 6 105 5 l35 0 3 80 c2 44
-1 87 -7 97 -8 14 -9 11 -5 -14 7 -35 -14 -53 -61 -53 -22 0 -31 10 -65 81
-21 44 -36 87 -33 95 10 25 60 46 83 34 16 -9 20 -8 20 5 0 15 78 59 172 96
46 18 53 18 66 5 14 -13 12 -17 -16 -33 -29 -17 -32 -22 -32 -70 0 -66 16 -69
26 -5 4 28 16 57 30 72 28 31 44 71 44 115 0 41 16 58 75 81 33 12 49 14 57 6
28 -28 87 -300 102 -472 9 -95 0 -103 -110 -111 l-89 -6 91 -1 c55 -1 95 -7
102 -14 29 -29 -4 -279 -58 -439 -63 -189 -139 -325 -277 -496 -134 -166 -274
-279 -475 -386 -68 -36 -133 -76 -143 -87 -18 -20 -13 -19 64 9 64 23 88 28
98 20 10 -9 13 -7 13 8 0 13 29 38 95 81 52 35 127 89 166 122 39 33 76 60 82
60 20 0 177 -166 177 -187 0 -37 -221 -214 -339 -272 l-53 -26 -29 35 -30 35
16 -38 c9 -21 13 -42 10 -48 -25 -39 -419 -179 -506 -179 -46 0 -130 122 -154
222 -9 34 4 41 115 63 103 20 240 63 240 76 0 13 -17 11 -90 -10 -36 -10 -111
-28 -168 -41 -114 -24 -125 -22 -136 32 -11 55 -54 117 -96 138 -46 24 -183
44 -246 37 -23 -2 -55 -14 -70 -26 -32 -25 -56 -24 -186 11 -45 12 -84 18 -95
13 -13 -5 9 -14 76 -31 122 -31 136 -40 156 -111 25 -86 119 -307 144 -339 53
-68 131 -98 131 -51 0 19 -11 28 -55 46 -69 29 -91 64 -155 249 -51 149 -51
148 35 188 56 27 145 32 220 13 63 -16 93 -53 116 -144 29 -117 106 -265 193
-372 76 -94 273 -400 308 -480 28 -64 61 -241 50 -272 -15 -43 14 -177 54
-251 19 -36 70 -137 113 -225 43 -88 86 -167 95 -174 9 -7 16 -11 16 -9 0 3
-38 83 -84 179 -46 96 -88 190 -94 209 -13 41 -28 168 -38 329 l-7 113 -58
113 c-33 62 -59 120 -59 129 0 19 22 31 107 57 155 48 447 196 590 299 129 94
149 110 284 242 322 315 546 749 629 1220 37 207 43 506 14 706 -10 76 -59
269 -98 387 -20 61 -36 116 -36 124 0 20 -76 165 -122 233 -21 31 -43 69 -49
84 -11 31 -134 203 -220 310 -102 125 -331 325 -484 421 -211 132 -296 173
-490 238 -55 19 -104 41 -109 49 -7 10 6 32 51 83 78 88 204 268 219 313 6 19
15 100 18 180 6 118 4 153 -8 189 -20 54 -75 147 -136 226 -33 44 -49 77 -59
120 -26 126 -39 153 -84 179 -23 13 -59 29 -80 36 -45 14 -50 24 -72 147 -20
108 -40 145 -93 172 -44 22 -53 37 -41 66 4 11 8 67 8 125 1 131 -13 159 -95
196 -30 13 -58 24 -61 24 -4 0 19 -23 50 -51 66 -59 67 -64 40 -224 -9 -56
-14 -108 -10 -118 3 -9 26 -26 50 -37 88 -42 103 -72 114 -231 l6 -96 57 -6
c31 -2 75 -14 97 -26 49 -24 56 -42 73 -189 7 -56 16 -105 21 -108 5 -3 17 0
27 5 25 13 45 -9 97 -104 82 -148 77 -128 55 -234 -11 -52 -19 -119 -18 -148
3 -73 -11 -86 -86 -77 -34 4 -60 13 -63 20 -3 8 9 30 26 49 29 34 71 105 71
122 0 4 -13 -15 -29 -42 -16 -28 -55 -73 -88 -100 -32 -28 -108 -99 -170 -158
-62 -59 -128 -114 -147 -122 -25 -11 -74 -15 -165 -15 -107 0 -139 -4 -181
-20 -62 -24 -103 -25 -140 -3 -38 22 -52 55 -57 138 -5 63 -2 74 21 108 34 50
33 63 -3 38 -21 -15 -45 -21 -84 -21 -64 0 -90 17 -136 88 -41 64 -43 135 -5
225 15 34 57 136 93 227 47 116 86 193 130 260 41 61 54 86 37 70 -16 -14 -45
-54 -66 -90 -56 -96 -66 -103 -163 -108 -73 -4 -85 -2 -110 18 -28 23 -57 78
-57 111 0 11 -5 19 -11 19 -15 0 -3 -66 18 -101 29 -49 -3 -74 -61 -48 -18 8
-29 9 -38 2 -9 -7 -35 -7 -81 -1 -61 9 -69 13 -83 40 -9 17 -13 40 -10 52 4
17 -7 29 -55 64 -126 90 -146 246 -47 350 61 62 77 34 26 -48 -22 -35 -33 -66
-35 -103 -4 -48 -1 -56 34 -102 22 -28 58 -60 83 -73 25 -13 37 -17 26 -10
-50 35 -66 52 -95 95 -18 26 -31 60 -31 77 0 43 66 172 110 215 74 72 168 199
189 255 11 31 21 60 21 64 0 4 10 19 23 35 16 20 42 33 97 48 41 11 99 36 130
55 71 44 53 44 -25 -1z m-440 -1070 c123 -44 134 -47 208 -42 l77 5 60 -50
c33 -27 60 -56 60 -64 0 -7 -24 -65 -54 -128 -88 -187 -84 -271 19 -376 70
-72 118 -197 101 -265 -8 -31 -23 -37 -178 -76 -65 -16 -157 -41 -205 -55 -49
-15 -102 -29 -120 -31 l-31 -5 -7 89 c-10 138 -11 133 20 133 15 0 25 6 25 14
0 16 27 29 42 19 6 -3 29 -5 50 -5 27 1 40 -3 45 -14 8 -21 -15 -35 -47 -28
-22 5 -23 4 -7 -6 10 -6 54 -14 98 -16 79 -5 80 -5 110 27 16 17 29 35 29 39
0 4 -26 30 -57 57 -60 52 -123 76 -123 48 0 -8 -7 -15 -15 -15 -8 0 -15 5 -15
10 0 6 -9 19 -21 31 -16 16 -23 18 -35 8 -12 -10 -20 -7 -41 12 -24 23 -94
153 -106 198 -3 12 -11 21 -17 21 -8 0 -9 -6 -5 -17 14 -31 18 -73 7 -73 -24
0 -51 68 -36 91 11 19 4 111 -10 134 -17 25 -27 276 -13 325 12 45 27 63 46
56 9 -2 75 -26 146 -51z m1572 -672 c3 -7 -23 -43 -57 -80 -34 -37 -75 -83
-91 -100 -16 -18 -36 -33 -44 -33 -18 0 -19 -12 -4 -27 17 -17 2 -60 -26 -79
-24 -15 -32 -15 -133 6 -117 25 -142 34 -142 54 0 32 42 65 108 85 81 24 115
49 142 102 25 48 47 61 130 76 78 13 112 12 117 -4z m-1507 -98 c7 -9 10 -18
7 -21 -7 -8 -47 14 -47 26 0 15 26 12 40 -5z m103 -50 c7 -16 -8 -29 -23 -20
-15 9 -12 35 4 35 8 0 16 -7 19 -15z m697 -100 c0 -8 -6 -15 -14 -15 -17 0
-28 14 -19 24 12 12 33 6 33 -9z m50 -75 c333 -25 629 -110 894 -255 585 -322
990 -864 1120 -1499 126 -613 -11 -1243 -383 -1756 -82 -114 -264 -308 -370
-394 -193 -158 -461 -305 -695 -382 -126 -41 -141 -44 -155 -30 -24 25 -2 38
144 87 226 76 483 215 645 350 100 83 224 204 299 293 249 293 437 731 485
1128 56 453 -42 942 -263 1322 -96 165 -136 219 -261 361 -193 217 -402 376
-657 500 -297 145 -594 215 -916 216 -433 2 -786 -96 -1170 -325 -130 -78
-162 -102 -291 -227 -315 -304 -457 -527 -597 -938 -77 -226 -93 -342 -93
-656 1 -202 5 -279 18 -345 33 -163 33 -206 2 -194 -20 8 -23 19 -53 174 -24
122 -26 159 -27 375 0 189 3 263 18 345 62 363 185 659 400 965 93 133 347
387 481 482 341 241 757 391 1095 394 58 1 116 5 130 9 35 11 48 11 200 0z
m-85 -90 c3 -6 17 -7 30 -4 12 3 26 1 29 -5 5 -7 12 -7 25 1 10 6 27 8 37 4
11 -4 56 -9 102 -12 45 -2 90 -8 100 -13 9 -5 45 -15 80 -22 34 -6 65 -16 68
-20 3 -5 15 -7 28 -3 14 3 27 -1 36 -11 7 -9 20 -13 31 -10 12 4 21 1 25 -8 3
-9 13 -13 25 -10 11 3 21 -1 25 -10 5 -13 9 -14 26 -4 16 10 22 9 36 -8 9 -11
25 -19 35 -17 12 2 20 -3 24 -17 4 -16 11 -19 33 -15 20 4 29 1 34 -11 3 -10
12 -15 21 -11 9 3 20 -2 27 -13 6 -10 19 -16 29 -14 10 3 22 -3 28 -16 7 -11
17 -18 25 -15 18 7 102 -41 110 -61 3 -8 14 -15 25 -15 11 0 26 -8 33 -18 7
-9 26 -23 41 -30 15 -6 30 -19 33 -27 4 -8 14 -15 24 -15 10 0 21 -8 24 -18 3
-9 28 -32 56 -50 27 -18 50 -39 50 -47 0 -8 6 -15 14 -15 8 0 21 -8 28 -18 7
-10 21 -21 31 -25 9 -3 17 -16 17 -27 0 -11 7 -20 15 -20 8 0 22 -12 32 -27
10 -16 28 -36 40 -46 13 -10 23 -23 23 -28 0 -5 17 -26 38 -47 42 -42 89 -102
112 -143 8 -15 34 -58 58 -96 54 -89 55 -107 5 -100 -21 3 -47 8 -58 12 -16 6
-15 3 5 -14 22 -18 23 -22 10 -35 -17 -17 -203 -99 -445 -196 -93 -38 -223
-94 -288 -124 -64 -31 -125 -56 -134 -56 -8 0 -22 8 -29 18 -12 16 -13 16 -14
-4 0 -22 -36 -44 -69 -44 -19 0 -61 66 -61 94 0 22 40 66 60 66 11 0 26 -12
35 -27 l16 -28 -5 26 c-3 14 0 33 7 42 10 15 16 16 45 5 40 -15 55 -8 100 53
62 82 60 80 98 73 30 -5 41 -2 75 26 36 28 46 32 85 27 42 -4 49 -1 99 39 41
34 62 44 90 44 28 0 45 9 79 40 29 27 52 40 72 40 22 0 26 3 14 10 -24 15 -34
12 -98 -30 -37 -25 -71 -40 -90 -40 -20 0 -43 -11 -65 -30 -19 -16 -43 -30
-54 -30 -22 0 -203 208 -203 234 0 9 -8 16 -20 16 -10 0 -34 13 -52 29 -28 24
-234 171 -272 193 -17 10 -228 95 -256 103 -14 4 -38 13 -55 20 -29 12 -208
38 -353 51 -54 5 -76 12 -85 25 -12 17 -13 17 -25 -1 -8 -14 -29 -20 -79 -25
-37 -4 -105 -13 -150 -20 -91 -13 -93 -12 -121 44 -12 25 -12 25 -7 -10 3 -23
1 -40 -7 -47 -7 -5 -56 -24 -108 -41 -197 -65 -373 -168 -553 -322 -176 -151
-313 -352 -398 -582 -34 -90 -81 -258 -75 -265 8 -7 28 41 63 151 103 328 337
637 623 822 188 122 384 194 627 230 128 19 169 19 185 1 11 -12 15 -12 30 1
15 14 34 14 151 4 263 -22 542 -130 758 -293 89 -67 267 -241 289 -284 14 -25
13 -28 -20 -55 -19 -16 -42 -29 -52 -29 -10 0 -34 24 -57 58 -49 71 -181 200
-243 236 -85 50 -218 97 -288 103 -57 5 -73 2 -121 -21 -40 -18 -72 -26 -113
-26 -49 0 -58 -3 -65 -22 -5 -13 -22 -153 -39 -313 -46 -431 -45 -409 -22
-430 38 -34 14 -69 -30 -45 -30 16 -64 5 -77 -23 -10 -22 -19 -25 -93 -30 -66
-4 -95 -12 -146 -37 -69 -36 -91 -56 -138 -127 -32 -49 -55 -60 -102 -49 -28
7 -32 41 -10 85 21 40 136 145 203 183 l58 34 3 70 c4 91 -38 622 -55 692 -5
20 -11 22 -83 22 -63 0 -89 5 -135 26 -47 22 -67 26 -111 21 -30 -3 -69 -13
-87 -22 -17 -9 -49 -23 -70 -31 -50 -18 -198 -120 -275 -190 -71 -64 -198
-229 -260 -336 -34 -59 -45 -93 -59 -174 -16 -97 -16 -103 2 -149 10 -27 38
-68 63 -93 24 -25 50 -59 58 -77 l13 -33 98 -6 c54 -4 152 -11 218 -16 66 -5
170 -12 230 -15 156 -8 175 -12 175 -35 0 -10 -4 -22 -10 -25 -5 -3 -10 -17
-10 -30 0 -41 -25 -55 -96 -55 -59 0 -65 -2 -59 -18 4 -16 -13 -27 -105 -71
-61 -28 -124 -54 -140 -58 -28 -5 -31 -2 -57 53 -14 32 -26 64 -26 71 0 7 -11
13 -24 13 -15 0 -22 -4 -17 -11 3 -6 -8 -25 -25 -43 -43 -44 -51 -107 -22
-164 33 -65 25 -92 -27 -92 -47 0 -90 -21 -100 -49 -6 -16 -24 -48 -41 -71
-17 -24 -31 -52 -31 -64 1 -18 4 -16 18 10 9 17 36 52 58 78 35 39 47 46 78
46 27 0 39 -6 52 -25 8 -13 14 -32 12 -42 -4 -23 -164 -104 -195 -99 -15 2
-28 -5 -38 -20 -9 -14 -29 -26 -52 -30 -21 -4 -50 -13 -65 -20 -15 -8 -30 -14
-33 -14 -3 0 -21 33 -40 74 -53 116 -112 388 -103 476 2 25 10 38 28 47 17 9
20 13 8 13 -35 0 -50 29 -44 89 15 154 17 211 8 211 -10 0 -32 -149 -32 -216
0 -52 -18 -75 -66 -84 l-39 -8 35 -1 c19 -1 41 -5 48 -9 7 -5 18 -57 26 -125
8 -63 20 -134 26 -157 6 -23 10 -49 8 -59 -2 -10 2 -24 8 -32 20 -27 96 -219
91 -231 -5 -13 -171 -91 -219 -103 -23 -6 -30 -2 -46 24 -34 55 -86 222 -75
239 7 11 4 21 -8 33 -22 22 -48 136 -61 276 -12 124 -7 142 41 144 l26 2 -25
4 c-14 3 -31 10 -37 15 -17 14 -16 125 2 260 17 128 33 187 56 201 13 8 15 14
6 28 -13 21 -3 59 64 231 54 137 79 178 110 178 17 0 18 3 9 20 -9 17 -5 31
20 75 79 139 208 295 242 295 11 0 18 7 18 19 0 43 335 307 378 299 9 -2 33
-32 54 -68 44 -76 48 -75 13 4 -40 91 -41 90 91 152 122 58 284 110 309 100 9
-3 20 -16 25 -28 9 -23 9 -23 9 3 1 35 18 47 82 59 91 16 283 28 301 19 11 -6
24 -5 37 2 14 10 49 10 152 0 169 -15 279 -37 300 -61 12 -14 19 -16 27 -8 27
27 368 -109 379 -151 3 -12 11 -17 23 -14 44 12 349 -207 350 -250 0 -7 15
-19 32 -27 18 -8 71 -58 117 -110 81 -90 111 -115 111 -91 0 12 -42 62 -136
161 -33 36 -64 75 -68 88 -4 12 -13 22 -21 22 -22 0 -125 90 -125 110 0 12 -6
17 -17 14 -10 -3 -52 17 -96 45 -89 56 -117 79 -117 96 0 6 -13 10 -32 8 -45
-5 -172 64 -176 95 -3 20 -5 20 -25 8 -19 -13 -31 -12 -101 11 -57 18 -80 30
-83 44 -5 18 -7 18 -23 4 -15 -13 -25 -13 -102 4 -47 10 -91 22 -97 25 -6 4
-12 28 -12 54 -1 26 -3 38 -6 27 -2 -11 -9 -33 -15 -49 l-12 -29 -110 7 c-60
4 -116 11 -123 18 -9 7 -17 7 -26 0 -7 -6 -37 -13 -67 -17 -30 -3 -115 -13
-189 -22 l-134 -17 -18 22 -18 23 -3 -27 c-3 -25 -12 -30 -128 -68 -69 -23
-162 -58 -206 -79 -91 -41 -110 -44 -135 -21 -16 14 -17 13 -16 -17 2 -31 -4
-37 -100 -103 -55 -39 -136 -100 -178 -136 -42 -36 -90 -72 -106 -80 -16 -8
-29 -21 -29 -28 0 -7 -36 -57 -80 -112 -44 -56 -103 -137 -131 -180 -52 -81
-63 -89 -102 -69 -21 11 -21 10 2 -15 l24 -26 -52 -117 c-29 -65 -67 -160 -84
-211 -16 -52 -36 -96 -43 -99 -9 -3 -11 -10 -5 -22 6 -11 2 -50 -10 -111 -11
-52 -24 -153 -29 -225 -7 -112 -11 -132 -29 -146 -20 -16 -20 -17 -2 -22 24
-6 35 -69 29 -161 -2 -38 1 -67 7 -73 13 -12 49 -202 41 -211 -4 -3 0 -12 7
-21 8 -9 28 -56 45 -106 17 -49 37 -104 44 -122 9 -25 9 -34 -1 -47 -19 -23
-149 -86 -177 -86 -29 0 -32 7 -79 159 -27 86 -35 129 -29 139 7 11 4 21 -12
37 -15 15 -26 48 -38 111 -20 111 -20 121 1 132 15 9 14 10 -4 16 -24 8 -33
47 -33 152 0 59 3 73 18 79 16 6 16 7 0 16 -15 8 -18 24 -17 97 0 48 4 107 7
132 7 42 9 45 42 50 34 6 35 6 8 13 -35 9 -41 32 -29 104 16 104 30 143 53
152 14 5 18 10 10 15 -19 11 -14 45 18 140 37 109 44 119 84 110 l30 -6 -28
24 -28 24 35 76 c41 90 66 118 99 112 20 -5 21 -4 6 6 -28 17 -22 42 30 121
56 86 80 112 97 105 8 -3 10 4 7 19 -4 23 0 28 86 120 11 11 24 30 31 42 6 13
22 25 35 29 15 3 27 16 30 30 4 13 13 24 21 24 7 0 17 9 20 20 3 11 16 25 28
31 23 12 29 17 85 68 17 17 38 28 45 25 8 -3 31 -27 52 -55 47 -63 57 -56 16
11 -17 28 -31 56 -31 62 0 18 62 78 80 78 8 0 21 9 28 20 7 11 23 20 36 20 13
0 26 7 30 15 8 23 32 18 55 -12 l21 -28 -11 27 c-15 35 -5 58 25 58 14 0 28 5
31 10 4 6 10 8 15 5 5 -3 11 3 14 13 6 19 70 52 99 52 10 0 26 9 38 21 15 15
29 20 49 15 18 -3 33 0 40 9 7 8 20 15 29 15 9 0 21 4 27 9 5 5 34 14 64 19
58 11 79 4 81 -27 1 -9 4 -2 8 14 5 26 14 33 59 48 36 12 59 14 70 8 12 -7 22
-5 35 7 15 13 22 14 38 4 16 -10 23 -10 36 4 12 12 28 15 57 12 23 -3 61 -2
86 2 69 11 138 11 145 0z m-500 -890 c54 -16 115 -30 136 -30 20 0 44 -6 51
-14 18 -17 34 -143 53 -410 23 -314 25 -291 -39 -321 -41 -19 -70 -45 -125
-110 -40 -49 -75 -102 -82 -125 -20 -66 -19 -66 -222 -47 -100 10 -227 20
-282 23 -162 8 -163 9 -175 54 -7 26 -17 40 -27 40 -26 0 -91 76 -103 120 -16
59 3 161 45 245 48 94 154 242 243 336 95 101 288 230 381 255 25 7 47 13 47
13 1 1 45 -12 99 -29z m1075 -11 c127 -35 243 -102 337 -195 100 -99 108 -121
61 -166 -18 -18 -50 -53 -70 -78 -35 -42 -38 -44 -66 -34 -25 10 -39 7 -95
-19 -37 -17 -70 -39 -77 -53 -9 -16 -67 -48 -204 -110 -105 -47 -205 -88 -222
-91 -18 -3 -44 2 -62 11 -27 14 -32 22 -32 54 0 71 70 626 80 636 6 6 36 11
68 11 46 0 65 5 97 28 48 33 84 34 185 6z m1224 -288 c15 -23 -68 -69 -303
-166 -59 -24 -208 -88 -332 -143 -259 -114 -277 -120 -286 -96 -8 21 14 38 76
60 25 9 100 41 166 71 114 52 593 263 625 276 23 8 48 8 54 -2z m80 -37 c9 -3
16 -12 16 -19 0 -16 -25 -26 -45 -19 -18 7 -20 30 -2 37 6 3 13 6 14 6 1 1 8
-2 17 -5z m30 -101 c30 -60 69 -205 59 -222 -8 -12 -5 -18 11 -26 17 -9 24
-30 40 -120 13 -78 16 -113 8 -125 -8 -13 -7 -21 3 -31 18 -18 37 -192 25
-225 -6 -16 -17 -24 -32 -24 -23 0 -23 0 2 -13 24 -13 25 -15 24 -122 -2 -173
-50 -427 -85 -445 -15 -9 -17 -14 -8 -29 9 -14 8 -30 -6 -72 -28 -84 -55 -140
-71 -146 -9 -3 -12 -13 -9 -24 8 -24 -76 -203 -101 -217 -12 -7 -27 -7 -43 0
l-26 9 22 -20 c18 -17 21 -26 13 -46 -12 -33 -106 -171 -123 -182 -7 -4 -25
-28 -41 -53 -39 -60 -252 -270 -300 -295 l-38 -20 -32 37 c-18 20 -45 60 -60
89 l-28 51 53 54 c59 60 90 74 116 53 15 -13 15 -12 4 9 -15 29 -6 45 78 134
l58 62 34 -24 34 -24 -22 25 c-13 14 -23 33 -23 43 0 10 23 51 51 92 40 57 57
74 75 74 21 0 23 2 13 18 -10 16 -2 38 45 134 32 64 72 156 90 204 27 72 37
90 55 92 21 3 22 5 6 22 -15 17 -14 26 8 134 14 64 30 123 37 131 6 8 8 20 4
27 -10 16 -5 163 6 194 7 17 18 24 37 25 28 1 28 1 -4 10 -22 6 -34 17 -37 32
-10 49 -13 184 -5 200 7 11 5 24 -4 39 -8 13 -22 62 -32 111 -17 84 -17 88 0
107 17 19 17 20 -2 20 -21 0 -33 20 -64 109 -24 70 -24 77 6 104 31 27 135 87
152 87 7 0 19 -12 27 -27z m-242 -106 c7 -8 24 -47 37 -87 19 -58 22 -76 13
-91 -15 -24 -15 -29 1 -29 34 0 69 -174 71 -350 l1 -115 -127 -3 c-113 -2
-128 -1 -136 15 -5 10 -13 73 -16 141 -4 68 -14 144 -21 170 -18 57 -12 77 23
91 l27 11 -26 -5 c-36 -6 -52 15 -78 100 l-22 70 21 17 c11 9 42 21 68 27 26
5 67 19 92 30 55 24 55 24 72 8z m-1027 -108 c4 -5 0 -18 -9 -27 -14 -16 -13
-19 4 -30 18 -11 98 -158 114 -208 4 -14 1 -28 -9 -37 -13 -14 -13 -16 7 -19
48 -7 28 -29 -69 -74 -109 -51 -275 -119 -316 -129 -20 -5 -27 -3 -27 8 0 9
26 26 63 41 34 15 73 36 87 47 l25 20 -35 -15 c-19 -7 -57 -24 -83 -36 -27
-12 -54 -19 -62 -16 -7 2 -30 37 -51 76 -39 74 -100 137 -166 171 -42 21 -54
37 -41 50 6 6 26 2 54 -10 74 -31 100 -32 155 -5 27 13 40 21 29 18 -63 -21
-94 -27 -110 -21 -14 6 -15 10 -5 22 18 22 143 84 275 136 123 49 159 57 170
38z m243 -106 c36 -31 36 -58 2 -87 -66 -55 -124 -38 -118 33 2 30 9 39 38 53
44 22 53 22 78 1z m-825 -132 c121 -33 179 -91 218 -218 11 -38 36 -112 55
-167 18 -54 31 -102 29 -107 -3 -4 -18 -4 -32 2 -35 13 -61 -1 -103 -53 -33
-40 -97 -74 -192 -103 -48 -14 -56 -13 -151 11 -55 14 -113 32 -128 40 -33 16
-79 74 -79 97 0 9 -9 39 -20 67 -15 38 -20 74 -20 142 0 82 3 95 29 142 47 81
110 136 173 151 76 19 144 18 221 -4z m-466 -203 c6 -7 13 -54 16 -104 4 -50
16 -120 27 -156 18 -59 28 -73 100 -142 44 -42 80 -83 80 -91 0 -20 -39 -19
-61 0 -15 14 -21 14 -63 -7 -43 -20 -45 -23 -25 -30 20 -8 21 -11 8 -23 -12
-11 -159 -75 -174 -75 -3 0 -5 7 -5 15 0 8 4 15 8 15 5 0 17 7 28 15 10 8 -41
-10 -115 -40 -74 -31 -142 -53 -151 -50 -16 5 -16 1 -7 -40 12 -54 -5 -82 -43
-70 -21 7 -80 118 -80 151 0 23 48 40 71 26 19 -12 19 -12 3 25 -8 21 -20 48
-25 60 l-8 23 -36 -21 c-43 -26 -82 -19 -95 16 -13 35 -4 51 41 77 24 13 38
27 35 35 -3 8 3 22 14 33 20 20 20 20 -3 17 -16 -1 -23 4 -25 19 -3 18 20 30
182 97 102 43 187 77 190 77 3 0 6 -6 6 -13 0 -7 -20 -23 -45 -37 -78 -42 -40
-34 46 11 l82 43 -6 71 c-4 40 -4 75 0 79 10 9 19 7 30 -6z m2173 -147 c22 -6
25 -13 28 -59 4 -62 -21 -263 -43 -347 -9 -34 -25 -67 -36 -75 -14 -11 -16
-19 -9 -26 26 -26 -133 -394 -173 -402 -20 -4 -217 123 -217 139 0 12 137 317
150 334 4 6 8 21 8 35 0 14 7 66 16 115 8 50 18 124 22 165 9 94 17 117 46
123 37 7 181 6 208 -2z m-2747 -53 c23 -18 59 -107 52 -129 -7 -21 -47 -35
-65 -24 -14 9 -50 90 -50 113 0 16 28 52 40 52 3 0 14 -6 23 -12z m1654 -233
c302 -19 434 -37 448 -61 6 -9 25 -34 43 -56 17 -22 32 -50 32 -62 0 -70 -90
-279 -166 -387 -59 -84 -195 -203 -273 -240 -25 -11 -59 -32 -77 -46 -43 -32
-162 -82 -197 -83 -37 0 -80 23 -100 54 -13 19 -28 26 -71 31 -31 4 -60 13
-65 19 -11 13 -22 93 -52 401 -12 116 -24 229 -26 251 -4 38 -2 43 29 65 18
13 59 47 90 76 68 62 36 59 385 38z m-1633 -181 c19 -19 20 -36 4 -52 -9 -9
-7 -12 10 -12 15 0 28 -12 42 -40 23 -46 25 -79 6 -105 -12 -17 -17 -18 -55
-5 l-41 13 -48 -45 c-28 -26 -63 -49 -82 -53 -38 -8 -37 -9 -91 78 -19 31 -40
52 -59 59 -42 14 -39 42 8 61 20 9 89 39 152 66 63 28 120 51 127 51 6 0 19
-7 27 -16z m722 -68 c5 -14 -41 -484 -53 -536 -11 -48 -31 -70 -67 -70 -20 0
-40 -8 -51 -20 -44 -49 -83 -63 -152 -57 -103 10 -181 52 -355 190 -86 67
-106 98 -73 111 9 3 25 21 36 41 18 29 27 35 56 35 25 0 42 8 61 28 15 16 40
32 57 36 16 4 46 22 66 40 55 50 399 214 452 216 10 0 20 -6 23 -14z m-1879
-18 c4 -7 29 -73 55 -146 58 -165 90 -222 123 -222 30 0 34 -26 8 -45 -16 -12
-17 -15 -1 -32 9 -10 41 -60 72 -112 31 -51 90 -136 130 -190 94 -124 102
-139 80 -148 -22 -8 -104 80 -171 182 -25 39 -66 96 -90 127 -24 31 -52 76
-62 100 -10 24 -39 86 -64 138 -46 96 -117 296 -117 329 0 30 22 42 37 19z
m603 -155 c0 -10 -11 -49 -25 -88 -13 -38 -25 -80 -25 -93 0 -13 -5 -32 -10
-43 -17 -31 -110 -26 -214 12 -136 49 -135 66 4 113 42 14 114 45 160 70 94
50 110 54 110 29z m2926 -149 c98 -66 108 -77 100 -106 -13 -51 -242 -328
-270 -328 -19 0 -176 169 -176 189 0 11 19 41 42 68 23 26 72 90 110 141 49
65 75 92 90 92 11 0 58 -25 104 -56z m-3150 -209 c47 -14 90 -28 96 -31 7 -5
9 -39 4 -100 -7 -104 -12 -124 -31 -124 -22 0 -185 233 -185 265 0 20 15 19
116 -10z m2893 -501 c34 -42 61 -82 61 -90 0 -18 -23 -38 -104 -93 -114 -77
-183 -113 -323 -174 -117 -50 -290 -107 -325 -107 -7 0 -26 21 -42 48 -17 26
-45 66 -64 90 -26 32 -32 45 -23 55 14 18 245 82 265 74 9 -4 21 -17 26 -29
10 -22 10 -22 6 2 -3 14 -2 30 2 37 11 17 173 93 184 87 5 -4 22 5 36 19 29
27 223 157 234 157 3 0 34 -34 67 -76z"/>
<path d="M3791 5614 c0 -11 3 -14 6 -6 3 7 2 16 -1 19 -3 4 -6 -2 -5 -13z"/>
<path d="M3602 5408 c2 -12 11 -24 21 -26 14 -3 18 1 15 20 -2 12 -11 24 -21
26 -14 3 -18 -1 -15 -20z"/>
<path d="M3420 5405 c0 -16 27 -32 37 -21 7 7 -16 36 -28 36 -5 0 -9 -7 -9
-15z"/>
<path d="M3170 5364 c0 -14 3 -14 15 -4 8 7 15 14 15 16 0 2 -7 4 -15 4 -8 0
-15 -7 -15 -16z"/>
<path d="M3111 5344 c0 -11 3 -14 6 -6 3 7 2 16 -1 19 -3 4 -6 -2 -5 -13z"/>
<path d="M4037 5313 c-4 -3 -7 -12 -7 -20 0 -17 26 -17 33 1 8 21 -11 35 -26
19z"/>
<path d="M4286 5213 c-4 -9 -3 -20 2 -25 11 -11 45 19 37 33 -10 15 -32 10
-39 -8z"/>
<path d="M2707 5213 c-4 -3 -7 -11 -7 -17 0 -6 5 -5 12 2 6 6 9 14 7 17 -3 3
-9 2 -12 -2z"/>
<path d="M2577 5146 c-3 -8 1 -17 9 -20 8 -3 14 1 14 9 0 20 -17 28 -23 11z"/>
<path d="M4400 5134 c0 -9 5 -14 12 -12 18 6 21 28 4 28 -9 0 -16 -7 -16 -16z"/>
<path d="M4665 4950 c-21 -23 -8 -27 20 -7 11 8 14 16 8 20 -6 4 -18 -2 -28
-13z"/>
<path d="M4710 4929 c0 -5 5 -7 10 -4 6 3 10 8 10 11 0 2 -4 4 -10 4 -5 0 -10
-5 -10 -11z"/>
<path d="M2283 4901 l-22 -18 23 -22 23 -22 7 32 c11 56 6 61 -31 30z"/>
<path d="M4740 4860 c0 -5 7 -10 15 -10 8 0 15 5 15 10 0 6 -7 10 -15 10 -8 0
-15 -4 -15 -10z"/>
<path d="M2190 4827 c0 -19 37 -50 49 -42 7 4 5 14 -5 31 -18 26 -44 33 -44
11z"/>
<path d="M2017 4539 c13 -14 28 -19 38 -15 25 9 0 36 -33 36 l-26 0 21 -21z"/>
<path d="M1844 4096 c-9 -20 -9 -26 3 -30 8 -3 15 -6 16 -6 1 0 2 14 3 30 1
36 -7 38 -22 6z"/>
<path d="M1795 3980 c3 -5 8 -10 11 -10 2 0 4 5 4 10 0 6 -5 10 -11 10 -5 0
-7 -4 -4 -10z"/>
<path d="M1778 3523 c6 -2 18 -2 25 0 6 3 1 5 -13 5 -14 0 -19 -2 -12 -5z"/>
<path d="M3515 3893 c-123 -15 -173 -54 -230 -178 -30 -67 -32 -76 -24 -131
13 -82 25 -108 70 -148 63 -58 109 -76 189 -76 86 0 131 17 188 73 73 70 88
123 73 247 -11 87 -38 125 -121 175 -57 34 -94 44 -145 38z m121 -68 c30 -15
67 -43 82 -62 23 -31 27 -47 30 -112 2 -67 -1 -82 -25 -126 -42 -73 -106 -110
-194 -110 -59 0 -73 4 -110 30 -104 73 -134 174 -85 288 28 67 42 79 120 108
63 23 111 19 182 -16z"/>
<path d="M3306 7649 c-41 -27 -84 -63 -96 -78 -11 -16 -53 -99 -94 -184 -40
-85 -85 -172 -100 -193 -21 -32 -26 -49 -25 -99 l1 -60 9 58 c7 45 20 76 63
140 30 45 75 130 101 189 59 134 87 174 164 228 56 39 68 50 57 50 -2 0 -38
-23 -80 -51z"/>
<path d="M11653 7443 c-17 -43 -43 -116 -58 -163 -15 -47 -37 -95 -49 -108
-21 -23 -21 -23 -211 -16 -126 4 -187 3 -180 -4 6 -5 71 -50 145 -99 74 -50
142 -98 150 -108 13 -15 8 -35 -43 -184 -57 -165 -64 -191 -49 -191 4 0 61 41
127 91 66 50 132 97 148 105 33 18 43 13 144 -62 87 -65 203 -137 210 -130 3
3 -21 82 -52 176 -34 103 -55 180 -51 193 3 14 57 57 151 121 80 55 145 102
145 104 0 3 -83 2 -183 -2 -145 -6 -186 -4 -194 6 -6 7 -32 85 -58 173 -25 88
-50 164 -55 168 -4 5 -21 -27 -37 -70z"/>
<path d="M3665 7394 c-68 -36 -135 -83 -135 -94 0 -5 -19 -40 -43 -77 -42 -66
-71 -123 -62 -123 2 0 29 35 59 78 79 109 94 125 156 165 55 35 101 77 84 77
-5 0 -32 -12 -59 -26z"/>
<path d="M3154 7183 c9 -9 117 -43 136 -42 31 0 -76 48 -109 49 -19 0 -31 -3
-27 -7z"/>
<path d="M3764 6896 c-52 -47 -71 -75 -142 -214 -80 -155 -106 -222 -59 -152
13 19 55 95 93 169 46 89 87 154 123 193 29 32 51 58 49 58 -3 0 -31 -24 -64
-54z"/>
<path d="M11298 6864 c-32 -17 -37 -44 -8 -44 32 0 70 22 70 42 0 22 -24 23
-62 2z"/>
<path d="M11093 6784 c-48 -20 -63 -31 -63 -46 0 -17 5 -20 29 -15 47 10 126
51 126 67 0 23 -25 21 -92 -6z"/>
<path d="M10855 6689 c-65 -27 -78 -38 -65 -54 19 -23 150 26 150 56 0 24 -21
24 -85 -2z"/>
<path d="M10597 6583 c-57 -26 -69 -45 -30 -51 30 -4 133 44 133 62 0 23 -37
19 -103 -11z"/>
<path d="M10353 6485 c-54 -24 -65 -41 -37 -52 21 -8 144 46 144 63 0 22 -49
17 -107 -11z"/>
<path d="M3906 6399 c-25 -17 -87 -75 -137 -129 -101 -109 -122 -136 -117
-150 2 -5 72 63 156 150 85 88 152 160 150 160 -3 0 -26 -14 -52 -31z"/>
<path d="M10122 6393 c-46 -18 -62 -30 -60 -42 5 -22 44 -18 104 11 47 22 65
50 34 55 -8 1 -43 -9 -78 -24z"/>
<path d="M9885 6299 c-65 -26 -81 -41 -61 -58 11 -9 27 -7 77 14 62 25 83 41
73 57 -8 13 -35 9 -89 -13z"/>
<path d="M9644 6202 c-51 -21 -76 -41 -68 -54 14 -22 154 29 154 56 0 21 -33
20 -86 -2z"/>
<path d="M9406 6105 c-66 -27 -81 -38 -72 -54 11 -17 29 -14 96 15 41 18 60
32 58 42 -5 24 -19 23 -82 -3z"/>
<path d="M9166 6010 c-62 -24 -85 -45 -68 -62 15 -15 147 40 147 62 0 22 -24
22 -79 0z"/>
<path d="M8941 5919 c-84 -34 -109 -56 -81 -74 11 -7 131 41 141 57 17 27 -14
36 -60 17z"/>
<path d="M8663 5805 c-53 -24 -71 -55 -33 -55 34 0 130 48 130 64 0 23 -37 20
-97 -9z"/>
<path d="M8436 5715 c-66 -27 -81 -38 -72 -54 11 -17 29 -14 96 15 41 18 60
32 58 42 -5 24 -19 23 -82 -3z"/>
<path d="M8185 5615 c-33 -14 -61 -25 -62 -25 -7 0 -2 -30 6 -35 12 -7 121 32
140 50 14 14 7 35 -12 35 -7 0 -39 -12 -72 -25z"/>
<path d="M7940 5517 c-58 -25 -81 -57 -38 -57 38 1 133 44 133 60 0 23 -34 22
-95 -3z"/>
<path d="M7689 5413 c-56 -29 -64 -49 -18 -47 40 2 119 41 119 58 0 24 -39 20
-101 -11z"/>
<path d="M7452 5320 c-63 -29 -77 -52 -36 -57 27 -4 129 49 129 67 0 24 -26
21 -93 -10z"/>
<path d="M7226 5230 c-61 -24 -85 -45 -69 -61 9 -9 26 -6 70 11 66 26 88 43
79 59 -10 15 -23 13 -80 -9z"/>
<path d="M6970 5127 c-60 -24 -81 -57 -36 -57 38 0 136 46 136 64 0 22 -34 20
-100 -7z"/>
<path d="M6719 5023 c-56 -29 -64 -49 -18 -47 40 2 119 41 119 58 0 24 -39 20
-101 -11z"/>
<path d="M6496 4935 c-66 -27 -81 -38 -72 -54 11 -17 29 -14 96 15 41 18 60
32 58 42 -5 24 -19 23 -82 -3z"/>
<path d="M6256 4840 c-61 -24 -85 -45 -69 -61 9 -9 26 -6 70 11 68 27 83 37
83 56 0 19 -25 17 -84 -6z"/>
<path d="M6000 4736 c-34 -14 -56 -29 -58 -41 -4 -15 1 -17 29 -12 54 9 129
45 129 62 0 21 -35 18 -100 -9z"/>
<path d="M6493 4680 c21 -48 36 -70 48 -70 21 0 100 -122 159 -246 197 -410
180 -881 -46 -1255 -26 -43 -55 -80 -65 -82 -17 -5 -85 -124 -76 -134 3 -2 32
13 65 33 42 27 58 42 51 50 -6 7 4 32 31 73 89 137 151 288 187 453 25 118 25
419 0 538 -40 184 -117 371 -216 523 -33 50 -50 85 -46 96 4 14 -9 27 -54 54
-32 21 -61 37 -64 37 -3 0 9 -31 26 -70z"/>
<path d="M5776 4646 c-98 -37 -108 -83 -12 -53 69 22 104 48 85 64 -11 8 -29
5 -73 -11z"/>
<path d="M273 4628 c-33 -23 -44 -48 -21 -48 6 0 20 8 31 18 10 9 29 18 41 19
11 2 37 5 57 9 31 5 40 2 63 -23 15 -15 43 -55 62 -88 20 -33 55 -85 78 -115
79 -102 136 -224 136 -292 0 -35 -17 -36 -32 -3 -6 14 -18 24 -26 23 -9 -2
-26 12 -39 31 -30 44 -29 37 6 -52 34 -86 45 -137 36 -166 -7 -23 -31 -28 -38
-8 -6 15 -22 0 -31 -29 -5 -17 -3 -22 11 -20 14 1 18 -6 18 -29 0 -36 -26 -42
-35 -7 -4 19 -8 14 -24 -30 -22 -62 -52 -108 -71 -108 -8 0 -15 12 -17 28 -3
26 -4 25 -27 -18 -13 -25 -37 -65 -53 -90 l-29 -45 34 38 c52 56 68 49 47 -22
-5 -19 -8 -36 -6 -38 2 -2 26 33 54 77 29 45 56 79 61 75 6 -3 -5 -37 -25 -77
-37 -79 -41 -98 -20 -98 37 0 102 -113 135 -233 25 -93 26 -113 5 -125 -13 -7
-11 -10 12 -15 41 -8 99 -60 141 -125 20 -31 58 -82 84 -113 27 -30 49 -60 49
-66 0 -29 -85 -67 -114 -51 -9 5 -43 11 -74 13 -66 4 -177 23 -210 36 -14 6
-30 5 -42 -1 -10 -5 -31 -10 -45 -10 -37 0 -78 -32 -109 -85 -15 -24 -39 -50
-54 -57 -19 -9 -39 -37 -68 -96 -22 -46 -45 -87 -51 -90 -12 -8 -27 -52 -18
-52 4 0 26 11 50 25 28 17 58 48 85 90 48 74 108 132 145 141 19 5 48 -4 103
-29 42 -19 87 -38 98 -41 12 -4 29 -15 39 -26 17 -18 16 -21 -11 -65 -16 -25
-33 -45 -38 -45 -4 0 2 -8 14 -18 21 -17 21 -19 6 -34 -8 -9 -46 -28 -83 -42
-38 -14 -88 -39 -113 -56 -27 -18 -48 -26 -54 -20 -17 17 2 35 88 84 48 26 85
50 83 52 -2 2 -25 -3 -50 -12 -32 -11 -78 -43 -144 -102 -52 -48 -109 -97
-124 -110 -16 -13 -27 -28 -24 -32 8 -13 51 5 105 45 70 51 134 75 222 82 l79
6 -2 -34 c-1 -24 11 -58 41 -112 23 -43 48 -97 56 -120 l13 -42 0 45 c1 25 -4
63 -10 85 -8 30 -8 52 2 93 11 46 10 57 -4 87 -22 45 -14 61 39 84 52 24 55
35 12 47 -45 13 -50 53 -12 83 31 25 47 26 64 6 10 -12 22 -4 80 53 63 62 90
109 90 160 0 19 -114 242 -149 290 -17 23 -37 42 -44 42 -38 0 -88 99 -122
240 -10 41 -34 105 -53 141 l-36 66 23 32 c35 49 96 198 114 277 28 121 46
263 38 292 -24 81 -192 344 -267 416 -47 45 -51 46 -111 46 -34 0 -67 2 -75 5
-7 3 -28 -5 -45 -17z"/>
<path d="M4560 3836 c0 -8 4 -17 9 -20 10 -7 23 19 14 28 -11 11 -23 6 -23 -8z"/>
<path d="M9652 3428 c3 -125 4 -133 23 -133 17 0 21 8 25 55 l5 55 60 0 60 0
5 -55 c4 -48 8 -55 28 -58 22 -3 22 -3 22 132 l0 136 -24 0 c-23 0 -25 -4 -28
-52 l-3 -53 -48 -3 c-62 -4 -77 9 -77 64 0 40 -2 44 -25 44 l-26 0 3 -132z"/>
<path d="M10018 3543 c-71 -45 -76 -168 -9 -227 30 -27 109 -33 153 -12 51 24
72 69 66 140 -7 82 -35 109 -120 113 -47 3 -70 -1 -90 -14z m119 -28 c47 -33
49 -150 3 -175 -60 -32 -120 9 -120 82 0 88 59 134 117 93z"/>
<path d="M10312 3428 c3 -125 4 -133 23 -133 15 0 21 8 23 30 5 62 12 75 36
75 26 0 46 -19 70 -68 18 -36 37 -48 61 -38 14 5 14 9 -1 38 -9 18 -26 43 -37
56 -18 19 -19 26 -9 40 46 64 40 106 -16 121 -20 6 -63 11 -95 11 l-58 0 3
-132z m112 92 c26 -10 35 -41 18 -66 -12 -19 -52 -27 -67 -14 -18 15 -20 61
-3 78 15 15 19 15 52 2z"/>
<path d="M10612 3428 c3 -125 4 -133 23 -133 19 0 20 8 23 133 l3 132 -26 0
-26 0 3 -132z"/>
<path d="M10745 3550 c-13 -21 8 -30 65 -30 32 0 62 -4 65 -10 3 -5 -26 -49
-65 -97 -39 -49 -69 -95 -68 -103 3 -12 23 -15 113 -15 97 0 110 2 113 18 3
15 -5 17 -67 17 -38 0 -73 5 -76 10 -4 6 25 50 64 99 39 49 71 96 71 105 0 14
-15 16 -104 16 -59 0 -108 -4 -111 -10z"/>
<path d="M11068 3531 c-27 -24 -32 -36 -36 -88 -7 -101 39 -153 135 -153 41 0
96 28 111 57 32 63 19 147 -29 187 -25 22 -41 26 -90 26 -50 0 -63 -4 -91 -29z
m132 -11 c25 -13 44 -79 36 -123 -9 -48 -35 -69 -83 -65 -33 3 -40 8 -57 41
-42 87 29 187 104 147z"/>
<path d="M11375 3548 c-3 -8 -4 -68 -3 -134 3 -111 4 -119 23 -119 18 0 20 8
23 65 3 80 10 112 23 108 5 -2 29 -39 53 -83 34 -62 49 -81 71 -87 16 -4 32
-5 37 -2 4 3 8 63 8 135 l0 129 -25 0 c-24 0 -24 -2 -27 -82 -2 -60 -7 -83
-16 -83 -7 0 -32 36 -55 80 -39 72 -46 80 -75 83 -20 2 -34 -2 -37 -10z"/>
<path d="M9412 3434 c-209 -56 -395 -182 -488 -329 -23 -37 -35 -46 -51 -40
-14 5 -17 -70 -4 -115 7 -24 8 -22 49 31 24 32 40 63 37 71 -9 22 76 131 142
183 82 64 192 118 312 154 57 17 105 31 107 31 2 0 4 7 4 15 0 19 -36 19 -108
-1z"/>
<path d="M11305 2839 c-159 -4 -1467 -10 -2905 -14 -2612 -7 -2615 -7 -2631
-27 -13 -16 -14 -25 -5 -44 6 -13 14 -24 18 -24 20 0 65 24 79 42 16 20 20 21
59 9 27 -8 44 -20 47 -32 3 -10 10 -19 17 -19 31 1 155 -56 159 -72 5 -16 13
-18 75 -12 68 6 71 6 99 -22 31 -32 50 -34 216 -19 71 6 90 11 98 27 17 32 48
37 106 17 29 -11 68 -19 88 -19 79 0 19 -29 -64 -31 -34 -1 -33 -2 19 -16 157
-42 65 -91 -149 -80 -64 4 -128 9 -142 13 -24 5 -26 4 -22 -19 5 -24 9 -26 92
-31 47 -4 110 -9 139 -11 40 -4 54 -2 58 9 3 8 19 18 34 21 16 4 47 19 69 35
32 23 57 31 124 40 47 6 107 17 133 25 32 10 93 15 176 15 124 0 128 1 175 30
26 17 59 30 74 30 38 0 110 -27 124 -47 9 -12 22 -15 54 -10 38 5 152 -6 192
-18 12 -4 18 3 22 24 9 45 32 52 128 41 136 -16 211 -13 276 12 54 20 64 20
140 9 45 -6 112 -8 151 -5 61 6 75 11 108 40 21 19 43 34 49 34 21 0 56 -41
50 -58 -8 -26 75 -43 141 -30 27 5 76 13 109 16 52 6 60 10 65 32 7 30 44 39
69 16 15 -13 31 -14 101 -8 108 11 154 4 158 -24 2 -17 -7 -25 -47 -43 -59
-25 -99 -26 -182 -5 -51 13 -63 14 -70 3 -14 -22 2 -28 109 -40 84 -10 102
-15 100 -28 -5 -24 -85 -43 -191 -45 -86 -1 -95 -2 -70 -13 72 -31 254 -4 308
46 49 45 105 64 174 59 45 -3 67 -10 84 -26 21 -20 33 -22 113 -21 49 1 79 4
67 6 -33 6 -28 19 16 47 22 14 42 30 46 36 4 6 49 10 111 10 102 0 105 1 114
25 12 33 58 45 76 20 12 -16 18 -17 58 -5 36 10 61 10 133 -1 48 -8 135 -14
193 -14 96 0 107 2 128 23 12 12 26 22 31 22 5 0 49 -13 98 -30 96 -33 163
-39 163 -16 0 23 132 47 144 27 3 -5 15 -7 25 -4 10 3 40 -5 66 -16 50 -22 85
-27 85 -12 0 5 30 23 66 40 56 26 64 33 54 46 -22 26 14 28 112 6 51 -12 138
-23 193 -25 55 -2 119 -9 142 -16 31 -10 49 -10 70 -2 15 6 71 16 123 22 52 6
111 14 130 19 42 9 80 -2 80 -24 0 -20 -30 -31 -110 -39 -80 -9 -102 -15 -95
-26 3 -5 -5 -16 -17 -24 -31 -22 -11 -20 98 8 58 15 106 34 128 51 34 26 46
28 139 32 93 4 104 7 122 29 16 18 38 27 85 35 36 6 72 15 80 19 17 10 -1039
9 -1455 -1z m-2225 -60 c65 -11 80 -23 58 -46 -15 -14 -30 -15 -155 -4 -169
15 -185 19 -181 40 5 28 143 33 278 10z m2320 12 c0 -13 -37 -24 -50 -16 -6 4
-8 11 -5 16 8 12 55 12 55 0z m-4212 -33 c66 -20 81 -43 36 -54 -33 -9 -183
21 -201 39 -12 12 -12 17 3 31 19 20 58 16 162 -16z m2485 3 c3 -11 29 -24 81
-39 77 -23 91 -37 61 -62 -37 -30 -203 -20 -192 13 2 6 -3 17 -12 24 -13 10
-14 15 -3 32 6 12 12 27 12 35 0 30 45 27 53 -3z m327 19 c0 -5 -5 -10 -11
-10 -5 0 -7 5 -4 10 3 6 8 10 11 10 2 0 4 -4 4 -10z m189 -4 c10 -12 8 -17 -8
-25 -28 -15 -46 -14 -62 5 -10 13 -10 17 2 25 21 13 55 11 68 -5z m-3404 -16
c0 -18 -43 -26 -57 -12 -16 16 2 33 30 30 16 -2 27 -9 27 -18z m140 0 c0 -19
-51 -26 -70 -10 -23 19 -7 31 33 28 25 -2 37 -8 37 -18z m470 5 c0 -5 -15 -11
-32 -13 -25 -3 -33 1 -33 13 0 12 8 16 33 13 17 -2 32 -7 32 -13z m525 1 c0
-8 -5 -18 -11 -22 -14 -8 -33 11 -25 25 10 16 36 13 36 -3z m243 3 c37 -10 49
-32 23 -42 -8 -3 -24 -3 -36 0 -12 3 -32 0 -45 -7 -14 -8 -40 -11 -66 -7 -44
6 -74 26 -51 34 7 3 18 11 25 19 14 16 97 18 150 3z m157 1 c12 -8 12 -10 -2
-15 -24 -9 -61 -2 -66 13 -4 14 45 17 68 2z m-1657 -30 c53 -16 67 -25 65 -38
-4 -18 -38 -22 -94 -10 -27 6 -33 4 -37 -14 -5 -18 -11 -20 -41 -15 -25 4 -36
1 -40 -9 -7 -18 -60 -18 -75 -1 -15 19 -4 27 36 27 21 0 33 5 33 14 0 8 6 16
14 19 9 4 12 14 9 25 -3 14 1 22 14 25 21 5 26 4 116 -23z m1172 17 c23 -18
13 -34 -28 -46 -25 -7 -27 -9 -9 -10 30 -1 28 -29 -4 -41 -70 -27 -226 11
-190 47 3 3 38 5 78 5 40 0 67 2 61 4 -21 9 -15 34 10 44 32 13 61 12 82 -3z
m3150 3 c8 -12 -14 -22 -57 -24 -23 -1 -33 4 -36 17 -3 14 4 17 42 17 25 0 48
-5 51 -10z m-4501 -6 c25 -10 19 -43 -9 -50 -29 -7 -75 2 -75 16 0 9 47 39 62
40 3 0 13 -3 22 -6z m3101 -14 c0 -8 -14 -18 -32 -23 -56 -17 -88 12 -35 32
36 13 67 9 67 -9z m1139 14 c9 -3 16 -12 16 -19 0 -16 -22 -25 -61 -25 -35 0
-40 26 -6 40 28 11 32 11 51 4z m-2314 -30 c0 -17 -26 -19 -36 -3 -7 12 15 31
28 23 4 -3 8 -12 8 -20z m328 9 c-4 -23 -68 -32 -68 -9 0 16 15 24 48 25 17 1
23 -4 20 -16z m-2590 -21 c3 -9 -3 -13 -19 -10 -12 1 -24 9 -27 16 -3 9 3 13
19 10 12 -1 24 -9 27 -16z m221 5 c17 -21 3 -27 -70 -27 -65 0 -87 9 -74 30
10 15 130 12 144 -3z m1090 -13 c17 -14 31 -32 31 -39 0 -20 -58 -29 -175 -30
-82 0 -100 3 -100 15 0 12 15 16 67 18 56 2 70 6 79 23 9 17 39 36 61 38 3 1
20 -11 37 -25z m-502 1 c8 -23 -1 -28 -62 -33 -46 -4 -55 -2 -55 12 0 32 105
51 117 21z m1388 -10 c0 -22 -52 -42 -82 -31 -16 7 -15 10 11 32 33 29 71 29
71 -1z m125 15 c0 -5 -5 -10 -11 -10 -5 0 -7 5 -4 10 3 6 8 10 11 10 2 0 4 -4
4 -10z m-555 -30 c0 -17 -37 -25 -63 -15 -15 6 -15 8 3 21 24 18 60 14 60 -6z
m-840 -30 c65 -28 59 -52 -15 -63 -70 -10 -185 -5 -184 8 1 14 105 73 131 74
12 1 42 -8 68 -19z"/>
<path d="M5722 2708 c-22 -22 -12 -33 61 -71 l74 -38 66 17 c61 15 82 34 38
34 -10 0 -24 6 -30 14 -14 16 -112 30 -171 24 -19 -2 -25 2 -24 15 2 20 1 20
-14 5z"/>
<path d="M11620 2707 c0 -24 63 -40 129 -32 86 10 92 21 14 29 -37 4 -85 9
-105 13 -30 4 -38 2 -38 -10z"/>
<path d="M2290 2700 c-9 -6 -10 -10 -3 -10 6 0 15 5 18 10 8 12 4 12 -15 0z"/>
<path d="M1267 2666 c-100 -44 -113 -54 -94 -74 13 -12 26 -9 103 25 66 29 89
44 89 58 0 29 -14 27 -98 -9z"/>
<path d="M2381 2500 c-1 -113 10 -219 40 -397 6 -35 9 -70 5 -78 -3 -8 4 -59
15 -113 12 -53 25 -135 29 -182 19 -184 48 -275 66 -204 9 35 -10 174 -62 457
-24 130 -4 206 75 281 28 27 34 28 90 23 33 -3 84 -16 114 -30 52 -24 54 -26
71 -85 9 -34 23 -92 31 -129 52 -257 67 -322 82 -353 11 -24 18 -30 20 -19 4
16 -38 227 -88 443 l-20 89 41 41 c39 38 40 41 20 44 -12 2 -32 -5 -44 -17
-12 -12 -28 -21 -35 -21 -37 0 -141 73 -307 217 -46 39 -92 74 -103 78 -11 3
-23 21 -29 43 -8 30 -10 14 -11 -88z m147 -76 c45 -42 82 -81 82 -89 0 -7 -20
-18 -44 -24 -45 -11 -76 -41 -90 -88 -8 -27 -31 -36 -46 -19 -12 15 -32 259
-23 282 10 28 40 13 121 -62z"/>
<path d="M9010 2593 c-14 -7 -34 -13 -45 -13 -12 0 -26 -5 -32 -11 -7 -7 -59
-11 -142 -10 -108 0 -129 -2 -125 -14 9 -22 -63 -62 -151 -85 -50 -13 -117
-22 -177 -23 -97 -2 -113 -8 -86 -35 29 -29 236 -5 294 34 19 13 40 24 45 24
6 0 35 16 65 36 l55 36 47 -18 c26 -11 50 -20 53 -22 4 -2 6 5 5 14 -1 14 14
20 74 32 41 8 89 15 107 15 26 0 32 5 36 26 3 14 5 26 4 27 -1 0 -13 -5 -27
-13z"/>
<path d="M8200 2579 c-19 -10 -52 -19 -73 -19 -27 0 -44 -6 -55 -20 -15 -18
-33 -22 -127 -27 -104 -6 -108 -7 -70 -18 25 -7 41 -19 44 -30 3 -17 -6 -17
-125 -13 -116 5 -129 7 -145 27 -15 19 -21 20 -40 11 -12 -7 -32 -10 -45 -7
-17 3 -28 -1 -35 -15 -10 -18 -8 -19 25 -12 21 3 72 -1 123 -11 121 -24 228
-17 362 25 57 18 111 40 121 50 30 30 73 33 157 12 159 -41 226 -38 274 14
l24 27 -40 -7 c-22 -4 -45 -14 -51 -22 -26 -34 -222 -5 -244 36 -13 25 -35 24
-80 -1z"/>
<path d="M10190 2590 c0 -5 9 -10 20 -10 11 0 20 5 20 10 0 6 -9 10 -20 10
-11 0 -20 -4 -20 -10z"/>
<path d="M836 2544 c-9 -24 -7 -64 4 -64 5 0 17 -14 25 -30 17 -32 250 -294
331 -371 27 -26 69 -59 93 -74 l44 -27 -6 -59 c-6 -72 -36 -124 -111 -199 -55
-53 -56 -56 -56 -110 0 -41 6 -65 25 -95 31 -50 31 -88 2 -145 -22 -45 -22
-45 -96 -57 -41 -7 -112 -26 -158 -42 -70 -26 -87 -29 -104 -18 -17 10 -23 9
-39 -13 -28 -35 -23 -84 8 -88 17 -3 25 2 29 18 6 22 83 63 201 105 80 29 99
24 112 -29 6 -22 13 -46 15 -52 2 -7 21 -17 42 -24 73 -23 83 -35 83 -94 0
-51 -2 -56 -39 -86 -63 -49 -98 -164 -72 -234 6 -13 27 -39 47 -58 21 -18 57
-52 81 -74 l43 -41 0 -75 c0 -82 -16 -140 -52 -189 -27 -36 -71 -61 -153 -84
-33 -10 -87 -29 -120 -42 -67 -28 -130 -45 -360 -99 -202 -46 -227 -62 -135
-84 37 -9 58 -9 78 -1 15 6 70 17 122 25 120 19 234 52 408 118 122 47 141 57
184 102 56 59 75 95 89 173 13 67 7 139 -15 180 -8 16 -48 55 -89 86 -91 70
-106 99 -82 159 9 24 29 57 45 73 42 45 50 68 50 135 0 78 -9 94 -67 116 -27
10 -54 22 -60 27 -18 14 -16 82 3 98 29 24 54 87 54 136 0 37 -7 59 -30 93
-49 73 -41 101 53 193 62 62 101 133 113 203 6 42 6 42 -52 85 -84 61 -254
229 -335 329 -37 47 -83 115 -101 152 -35 70 -42 78 -52 52z"/>
<path d="M983 2538 c-47 -24 -59 -58 -22 -58 29 0 120 51 116 64 -6 19 -51 16
-94 -6z"/>
<path d="M5700 2532 c0 -28 28 -60 63 -71 18 -6 80 -20 137 -31 68 -13 109
-26 117 -36 19 -26 139 -13 203 22 28 15 49 29 47 30 -2 2 -37 -3 -78 -12
-110 -23 -266 -3 -276 36 -4 14 -17 19 -74 22 -58 3 -73 8 -97 31 -33 32 -42
34 -42 9z"/>
<path d="M10080 2541 c0 -21 155 -61 235 -61 29 1 29 1 11 15 -13 10 -43 15
-87 15 -76 0 -99 6 -99 26 0 9 -11 14 -30 14 -16 0 -30 -4 -30 -9z"/>
<path d="M11510 2468 c36 -11 72 -24 80 -28 8 -4 38 1 65 12 l50 18 -52 -5
c-30 -3 -83 1 -125 10 -94 19 -98 18 -18 -7z"/>
<path d="M8905 2451 c22 -11 54 -22 70 -26 18 -3 9 3 -20 15 -68 27 -100 34
-50 11z"/>
<path d="M7160 2451 c22 -13 107 -25 95 -13 -5 5 -32 13 -60 16 -32 4 -45 3
-35 -3z"/>
<path d="M10930 2452 c0 -15 22 -20 133 -28 87 -6 97 -5 91 10 -4 11 -19 16
-48 16 -22 0 -71 3 -108 7 -46 4 -68 2 -68 -5z"/>
<path d="M9822 2384 c20 -23 15 -33 -34 -63 -66 -39 -49 -37 55 8 27 12 65 21
84 21 54 0 25 27 -35 32 -26 3 -56 8 -67 13 -19 8 -19 7 -3 -11z"/>
<path d="M11810 2339 c-51 -15 -99 -19 -225 -20 -134 -1 -153 -3 -120 -12 22
-6 114 -11 205 -11 139 0 174 3 219 20 115 40 47 61 -79 23z"/>
<path d="M8879 2293 c-138 -123 -192 -141 -374 -124 -130 12 -216 34 -423 106
-74 26 -135 45 -138 43 -2 -3 47 -24 109 -47 290 -111 382 -130 652 -135 110
-2 169 -1 130 2 -89 9 -95 25 -23 69 95 57 168 119 155 132 -17 17 -20 15 -88
-46z"/>
<path d="M9960 2237 c-25 -18 -65 -45 -90 -60 -25 -15 -40 -27 -34 -27 5 0 37
16 70 36 124 77 103 73 191 35 162 -69 357 -118 508 -128 92 -6 253 10 292 29
70 34 15 58 -107 46 -201 -19 -317 -20 -420 -4 -92 15 -290 72 -332 96 -25 14
-28 13 -78 -23z"/>
<path d="M10295 2259 c-5 -7 93 -24 100 -17 3 2 -18 9 -46 14 -27 6 -52 7 -54
3z"/>
<path d="M6140 2248 c-15 -7 -96 -12 -208 -12 -154 -1 -182 -3 -180 -16 5 -22
41 -28 174 -29 126 -1 191 7 283 36 42 13 50 18 35 24 -28 11 -75 9 -104 -3z"/>
<path d="M10615 2249 c-22 -4 -74 -9 -115 -10 l-75 -2 60 -7 c59 -8 126 -1
175 19 30 12 11 12 -45 0z"/>
<path d="M7425 2235 c38 -18 58 -19 53 -2 -3 6 -22 13 -44 14 l-39 2 30 -14z"/>
<path d="M7048 2203 c7 -3 16 -2 19 1 4 3 -2 6 -13 5 -11 0 -14 -3 -6 -6z"/>
<path d="M7528 2203 c7 -3 16 -2 19 1 4 3 -2 6 -13 5 -11 0 -14 -3 -6 -6z"/>
<path d="M9174 2181 c10 -16 -19 -30 -69 -34 -28 -2 6 -4 75 -5 69 -1 135 -5
148 -8 16 -5 22 -2 22 10 0 12 -10 16 -44 16 -24 0 -63 7 -86 15 -50 17 -53
18 -46 6z"/>
<path d="M8953 2133 c15 -2 39 -2 55 0 15 2 2 4 -28 4 -30 0 -43 -2 -27 -4z"/>
<path d="M9430 2109 c14 -4 79 -7 145 -7 66 0 113 2 105 4 -31 6 -274 10 -250
3z"/>
<path d="M9708 2113 c7 -3 16 -2 19 1 4 3 -2 6 -13 5 -11 0 -14 -3 -6 -6z"/>
<path d="M8452 1993 c-24 -8 -41 -17 -39 -19 4 -5 97 26 97 32 0 6 -11 4 -58
-13z"/>
<path d="M6915 1947 c17 -15 54 -31 85 -37 30 -7 64 -14 75 -16 16 -4 21 0 21
15 0 16 -8 22 -36 26 -37 6 -108 20 -150 31 -24 6 -24 5 5 -19z"/>
<path d="M8288 1943 c7 -3 16 -2 19 1 4 3 -2 6 -13 5 -11 0 -14 -3 -6 -6z"/>
<path d="M9455 1872 c-98 -35 -104 -36 -249 -37 -82 0 -136 -3 -120 -6 100
-22 320 0 427 42 28 11 66 24 86 28 l36 9 -40 0 c-22 0 -85 -16 -140 -36z"/>
<path d="M9028 1843 c7 -3 16 -2 19 1 4 3 -2 6 -13 5 -11 0 -14 -3 -6 -6z"/>
<path d="M1138 1816 c-20 -7 -76 -38 -126 -69 -49 -32 -98 -57 -108 -57 -10 0
-34 9 -51 20 -27 16 -33 17 -33 5 0 -8 11 -22 24 -30 31 -21 79 -9 157 39 31
18 76 37 100 41 56 9 99 31 99 50 0 18 -13 18 -62 1z"/>
<path d="M7971 1812 c-19 -13 -60 -18 -190 -22 l-166 -5 110 -5 c193 -9 130
-45 -170 -97 -189 -33 -364 -36 -479 -9 -43 10 -92 15 -110 12 -23 -4 -60 6
-145 39 -125 49 -136 52 -144 30 -11 -27 -91 -58 -182 -71 l-90 -12 67 -1 c37
-1 104 6 149 15 l81 17 86 -27 c115 -35 180 -45 342 -52 169 -8 297 5 521 55
96 21 227 49 292 62 126 25 137 34 82 69 -28 17 -32 17 -54 2z"/>
<path d="M955 1180 c-3 -5 3 -10 14 -10 12 0 21 5 21 10 0 6 -6 10 -14 10 -8
0 -18 -4 -21 -10z"/>
<path d="M2820 1123 c0 -14 19 -38 25 -32 8 8 -5 39 -16 39 -5 0 -9 -3 -9 -7z"/>
<path d="M2840 1036 c0 -20 23 -56 35 -56 9 0 14 -4 11 -8 -2 -4 -2 -12 2 -18
10 -14 82 -57 87 -52 8 7 -107 138 -121 138 -8 0 -14 -2 -14 -4z"/>
</g>
</svg>
